<svg width="66" height="40" viewBox="0 0 66 40" fill="none" xmlns="http://www.w3.org/2000/svg">
<path d="M21.3456 25.2108L20.7402 25.5025L21.5527 27.189L19.6541 27.34L19.6863 28.0704L21.5785 27.8692L21.1699 29.8597L21.8619 30.0059L22.2501 27.9363L24.0668 28.9792L24.4623 28.3624L22.6451 27.3553L24.0314 26.0303L23.5097 25.5002L22.1581 26.8973L21.3456 25.2108ZM32.7116 26.2175L33.5909 25.7939C33.0375 24.9771 32.4005 24.5026 31.6657 24.3415C30.931 24.1804 30.1275 24.3189 29.2626 24.7355C28.7005 25.0064 28.259 25.3434 27.9451 25.761C27.6169 26.1855 27.4023 26.6618 27.2876 27.1611C27.173 27.6603 27.1581 28.1825 27.2432 28.7276C27.3138 29.2797 27.4847 29.8189 27.7347 30.3379C27.9986 30.8856 28.3207 31.3698 28.6796 31.783C29.0385 32.1962 29.4561 32.51 29.8966 32.724C30.3441 32.9524 30.8364 33.0527 31.3661 33.0462C31.8957 33.0396 32.4632 32.8905 33.0542 32.6058C33.5299 32.3767 33.9132 32.1032 34.2111 31.7999C34.5089 31.4965 34.7288 31.1419 34.8846 30.765C35.0261 30.3949 35.1034 30.0025 35.1097 29.5732C35.1085 29.1653 35.0577 28.728 34.9284 28.2752L34.0059 28.7197C34.2036 29.3881 34.1946 29.9963 33.9791 30.5441C33.7635 31.092 33.3279 31.5149 32.6792 31.8274C32.2324 32.0427 31.8015 32.1437 31.3941 32.1091C30.9937 32.0889 30.6231 31.9833 30.2755 31.7778C29.9279 31.5723 29.624 31.3102 29.357 30.9771C29.0755 30.651 28.8448 30.2826 28.6573 29.8934C28.4698 29.5042 28.3325 29.1086 28.2459 28.6708C28.1662 28.2474 28.1437 27.832 28.1997 27.4321C28.2556 27.0322 28.404 26.6766 28.6308 26.3364C28.8577 25.9962 29.1908 25.7292 29.6376 25.5139C30.2142 25.2361 30.7663 25.1655 31.2869 25.2877C31.8144 25.4243 32.2822 25.7317 32.7116 26.2175ZM33.891 19.1669L33.0261 19.5835L38.0261 29.9619L38.8909 29.5453L33.891 19.1669ZM37.1296 17.6066L36.1783 18.065L36.7963 19.3478L37.7477 18.8895L37.1296 17.6066ZM38.4891 20.5392L37.6243 20.9558L41.2214 28.4225L42.0863 28.0059L38.4891 20.5392ZM47.112 19.2799L47.9912 18.8563C47.4379 18.0395 46.8008 17.565 46.0661 17.4039C45.3314 17.2428 44.5279 17.3813 43.663 17.798C43.1008 18.0688 42.6593 18.4058 42.3455 18.8234C42.0172 19.248 41.8027 19.7243 41.688 20.2235C41.5733 20.7228 41.5585 21.245 41.6435 21.7901C41.7141 22.3421 41.8851 22.8814 42.1351 23.4003C42.399 23.948 42.7211 24.4322 43.0799 24.8454C43.4388 25.2586 43.8564 25.5724 44.297 25.7864C44.7445 26.0149 45.2368 26.1151 45.7664 26.1086C46.2961 26.1021 46.8636 25.953 47.4546 25.6683C47.9303 25.4391 48.3136 25.1656 48.6114 24.8623C48.9093 24.559 49.1292 24.2044 49.285 23.8274C49.4264 23.4574 49.5037 23.0649 49.5101 22.6356C49.5089 22.2277 49.4581 21.7904 49.3288 21.3377L48.4062 21.7821C48.6039 22.4506 48.595 23.0587 48.3794 23.6066C48.1638 24.1544 47.7283 24.5774 47.0796 24.8899C46.6328 25.1052 46.2019 25.2062 45.7945 25.1716C45.3941 25.1514 45.0235 25.0457 44.6759 24.8402C44.3282 24.6348 44.0244 24.3727 43.7573 24.0396C43.4759 23.7134 43.2451 23.345 43.0576 22.9558C42.8701 22.5667 42.7328 22.1711 42.6462 21.7332C42.5666 21.3099 42.544 20.8945 42.6 20.4946C42.656 20.0946 42.8043 19.739 43.0312 19.3988C43.258 19.0587 43.5911 18.7916 44.038 18.5764C44.6146 18.2986 45.1666 18.228 45.6872 18.3501C46.2148 18.4867 46.6826 18.7941 47.112 19.2799ZM48.104 12.3196L47.2391 12.7363L52.239 23.1147L53.1039 22.698L51.7428 19.8728L52.5096 17.8517L57.3129 20.6702L58.2787 20.205L52.8522 16.9407L54.35 12.898L53.168 13.4675L51.215 18.7773L48.104 12.3196ZM56.5652 8.24327L55.9598 8.53493L56.7723 10.2214L54.8737 10.3724L54.9059 11.1028L56.7981 10.9016L56.3896 12.8922L57.0816 13.0383L57.4698 10.9688L59.2865 12.0116L59.682 11.3949L57.8648 10.3878L59.2511 9.06277L58.7293 8.5327L57.3777 9.92976L56.5652 8.24327Z" fill="white"/>
<path fill-rule="evenodd" clip-rule="evenodd" d="M0 12.7776L16.0757 20.1223L7.83112 22.5573L4.96329 29.5827L0 12.7776ZM1.58071 14.5992L5.11486 26.5655L7.08693 21.7344L13.228 19.9207L1.58071 14.5992Z" fill="white"/>
</svg>
