<svg width="1920" height="916" viewBox="0 0 1920 916" fill="none" xmlns="http://www.w3.org/2000/svg">
<path d="M338.556 65.1572C342.464 78.7058 328.394 102.416 323.444 114.401C315.627 133.161 306.508 151.66 301.297 171.461C324.746 182.926 348.196 194.39 371.645 205.854C373.469 165.99 356.012 127.95 335.95 94.5993C310.937 53.1719 272.637 22.1666 226.78 6.53363C197.859 -3.36725 163.466 -5.45162 147.573 25.2932C134.285 50.8271 137.932 86.2618 142.883 113.359C155.91 184.228 218.182 233.993 265.862 282.456C290.354 307.468 313.543 334.826 326.31 367.655C341.682 406.738 337.253 451.031 319.275 488.55C310.677 506.528 298.17 522.682 284.361 536.752C277.848 543.266 271.334 549.779 263.517 554.99C260.912 556.554 258.046 558.117 255.18 559.159C235.378 567.497 298.17 588.862 286.967 575.574C269.249 554.209 259.87 519.295 250.229 493.761C230.428 441.651 201.507 364.529 232.772 311.637C213.752 305.905 194.732 300.173 175.712 294.441C208.281 315.806 223.914 367.134 236.681 401.787C241.892 415.596 264.038 424.976 276.545 429.666C278.89 430.708 311.458 441.651 307.029 429.405C288.53 379.38 265.602 324.925 219.484 294.441C212.189 289.49 170.501 263.435 162.424 277.245C142.883 310.334 148.615 353.586 156.432 389.281C165.29 430.448 180.663 470.312 197.338 508.873C204.894 526.33 211.929 544.568 224.174 559.42C241.371 580.264 271.334 595.115 297.649 599.284C319.535 602.671 335.168 590.425 350.02 575.574C370.603 554.99 387.018 532.583 397.179 505.225C425.579 428.103 385.194 358.536 333.084 304.081C285.664 254.577 225.477 208.981 212.45 137.851C206.978 108.409 203.33 38.0601 248.927 39.6234C255.961 39.884 240.328 36.7574 236.16 33.6308C241.11 37.018 245.279 41.7078 249.187 46.1372C259.609 57.8619 268.468 71.1498 276.024 84.9589C290.093 110.493 302.86 142.019 301.558 171.722C300.776 190.221 368.519 218.621 371.906 206.114C377.377 185.01 387.539 164.948 395.876 144.885C401.609 131.076 413.854 109.19 409.164 93.5572C405.256 79.7481 380.765 70.1076 369.3 65.4177C366.174 63.8544 334.908 52.6509 338.556 65.1572Z" fill="black"/>
<path d="M339.339 244.415C339.86 245.197 340.381 246.239 340.902 247.021C341.944 252.492 342.986 258.224 344.029 263.696L344.289 263.435C340.641 262.914 336.994 262.393 333.086 261.872C326.572 258.485 339.339 267.083 341.684 268.907C348.197 274.118 356.014 277.766 363.309 281.674C386.498 293.399 411.25 300.955 436.263 307.208C489.676 320.756 544.391 332.22 599.888 326.488C588.685 311.116 577.481 296.004 566.277 280.632C530.582 287.406 500.358 304.342 477.43 332.481C467.008 345.248 508.435 386.154 516.512 376.253C538.138 349.677 566.017 332.742 599.888 326.488C614.479 323.883 581.389 279.068 566.277 280.632C512.865 286.103 461.797 274.9 410.208 262.393C385.977 256.401 362.528 249.105 340.381 237.641C336.994 236.078 320.319 224.874 336.994 236.338C334.649 234.775 332.564 232.951 330.48 231.127C326.051 227.48 321.361 223.571 316.15 220.966C313.805 219.663 307.812 216.537 304.946 219.403L304.686 219.663C300.517 223.832 305.467 232.691 307.812 236.338C309.636 239.465 311.72 242.592 314.065 245.458C320.319 253.274 331.783 268.386 343.508 267.604C354.711 267.604 341.684 247.281 339.339 244.415Z" fill="black"/>
<path d="M388.061 292.878C396.659 390.844 405.257 489.332 423.235 586.256C425.841 600.586 481.598 599.805 481.077 596.678C463.099 499.754 454.501 401.527 445.903 303.3C444.6 290.012 387.54 287.927 388.061 292.878Z" fill="black"/>
<path d="M471.176 383.549C469.092 411.428 475.345 440.088 481.338 466.925C488.633 498.972 498.273 530.759 510.259 561.504C514.948 574.01 524.328 586.517 534.229 595.375C542.306 602.41 545.954 599.284 542.306 589.643C532.405 563.588 524.589 536.752 517.814 509.655C511.301 483.079 504.787 454.939 506.871 427.321C507.653 416.378 496.189 402.829 489.936 395.013C489.415 394.231 471.958 375.211 471.176 383.549Z" fill="black"/>
<path d="M469.874 386.154C499.316 446.341 560.545 476.825 608.746 519.555C608.225 505.746 607.704 492.198 607.183 478.388C560.545 476.304 513.385 478.128 467.268 484.381C443.558 487.508 473.782 537.012 495.668 534.146C538.659 528.153 582.17 526.59 625.682 528.414C650.955 529.456 633.499 495.585 624.119 487.247C585.036 452.594 528.497 426.539 504.787 378.077C499.837 367.915 485.767 354.367 473.261 357.233C459.452 360.36 465.965 378.338 469.874 386.154Z" fill="black"/>
<path d="M531.103 491.416C539.44 510.697 540.222 533.364 544.651 553.687C550.644 581.566 561.847 608.924 573.051 634.979C596.24 688.912 630.372 742.064 682.742 771.507C698.375 780.105 717.135 792.09 733.81 780.105C751.788 767.077 757.26 734.248 762.471 714.446C778.104 655.041 754.394 599.544 728.86 546.913C724.43 537.533 708.276 529.977 699.939 525.287C698.636 524.506 677.531 514.084 679.876 518.774C701.241 562.806 721.043 607.1 717.396 657.125C715.572 679.793 708.537 702.722 700.199 723.826C697.073 732.164 692.643 739.72 686.911 746.494C684.566 749.099 681.7 750.923 678.574 752.486C667.891 757.958 667.37 744.931 682.221 759.521C648.089 725.65 626.724 676.927 610.049 632.634C602.754 613.093 595.979 592.77 592.071 572.186C588.684 554.99 587.642 535.709 580.607 519.295C576.699 510.175 559.763 502.098 551.686 497.669C550.123 496.887 529.018 486.465 531.103 491.416Z" fill="black"/>
<path d="M654.603 483.86C710.882 466.403 721.043 405.435 712.445 354.367C709.058 334.044 702.284 311.376 685.608 297.828C663.983 280.11 631.675 304.342 617.605 320.235C580.868 361.141 593.374 429.927 610.049 476.565C618.908 501.578 633.759 526.069 656.427 540.92C680.397 556.814 711.924 551.082 735.634 538.315C745.535 532.843 761.168 522.682 759.605 509.134C758.041 496.106 739.021 500.014 731.726 503.923C699.939 521.379 674.926 480.734 663.462 454.939C648.089 420.547 640.273 375.472 651.216 338.734C651.998 336.129 653.04 334.044 654.343 331.439C653.3 333.523 660.856 323.883 656.427 328.312C652.519 332.22 645.484 334.826 640.273 334.305C642.357 334.565 640.012 333.784 643.399 336.129C651.998 342.121 657.209 360.881 659.554 372.084C663.201 388.499 664.764 405.956 662.941 422.631C662.159 429.405 661.117 437.222 658.772 443.214C658.511 444.257 653.821 452.334 656.166 448.947C653.561 452.855 660.856 445.559 664.243 444.517C651.998 448.425 637.146 458.066 634.02 471.354C630.633 484.642 645.223 486.987 654.603 483.86Z" fill="black"/>
<path d="M806.244 466.925C822.137 449.989 827.609 422.631 830.996 400.485C835.425 372.606 833.08 341.861 814.581 319.454C796.082 297.046 761.95 284.8 734.592 297.307C712.967 307.208 712.185 340.298 712.967 360.099C714.791 408.301 728.6 459.89 746.057 504.704C756.739 532.323 770.288 560.722 792.956 580.524C818.75 602.931 852.621 606.579 870.86 574.792C881.542 556.032 830.475 527.372 819.792 546.132C817.187 550.561 814.842 554.99 810.673 558.377C803.117 564.631 817.187 559.42 823.44 564.37C821.095 562.546 814.581 551.343 811.715 546.132C804.159 532.844 798.167 517.992 793.477 503.402C782.012 467.185 771.33 430.187 767.422 392.407C765.598 375.993 764.295 356.973 771.59 341.6C773.935 336.65 777.323 333.523 782.534 332.221C777.062 333.523 771.33 320.235 775.759 332.221C786.963 362.444 777.062 415.336 754.915 439.306C741.888 452.334 790.611 483.6 806.244 466.925Z" fill="black"/>
<path d="M635.322 223.311C622.034 193.087 598.063 167.293 578.783 140.977C572.269 132.118 561.065 123.52 549.341 123.781C539.44 124.041 535.271 133.161 538.137 142.019C552.207 182.144 590.247 205.333 627.766 220.966C668.151 237.902 711.402 248.063 754.393 255.619C798.947 263.435 844.804 266.041 889.879 267.083C917.497 267.604 945.376 266.562 972.734 262.393C985.501 260.569 998.007 257.703 1010.51 254.316C1017.29 252.492 1024.06 249.887 1030.58 247.281C1033.18 246.239 1039.43 241.549 1041.26 241.549C1031.36 225.916 1021.72 210.283 1011.82 194.911C973.515 208.459 941.989 234.514 925.314 271.773C916.194 292.096 961.79 328.312 972.473 304.342C986.543 272.815 1014.42 251.971 1046.21 240.507C1071.74 231.388 1032.4 193.869 1016.77 193.869C1009.21 193.869 1002.7 198.298 995.922 201.425C986.022 205.593 975.6 208.72 965.438 211.325C940.686 217.579 914.892 218.882 889.358 219.403C846.367 220.445 799.729 218.1 758.822 212.107C723.909 207.157 688.995 199.34 655.124 189.179C637.406 183.707 619.95 176.933 603.535 168.335C599.887 166.25 592.071 161.3 590.768 160.258C585.818 156.089 585.297 155.047 584.515 153.484C570.966 153.744 557.418 154.005 544.13 154.265C560.805 176.933 581.649 198.559 593.113 224.353C603.274 246.76 650.694 258.485 635.322 223.311Z" fill="black"/>
<path d="M846.889 244.415C836.988 370 827.348 498.972 884.408 615.698C888.837 625.078 905.773 632.113 914.111 636.282C915.153 636.803 937.3 646.443 934.955 641.232C878.416 525.548 888.316 397.618 898.217 273.336C898.999 259.788 846.889 245.457 846.889 244.415Z" fill="black"/>
<path d="M993.316 487.247C1025.36 438.525 1058.45 390.584 1082.42 337.431C1093.63 312.679 1102.75 287.145 1113.95 262.654C1125.68 236.859 1136.1 210.805 1137.92 182.144C1119.94 174.588 1101.7 167.032 1083.73 159.476C1084.51 253.274 1117.34 338.995 1153.55 424.194C1172.84 469.269 1194.46 513.302 1217.13 556.814C1227.55 576.876 1239.01 596.678 1248.39 617.262C1256.21 634.718 1264.29 651.654 1277.32 665.724C1284.87 673.801 1295.81 679.012 1306.24 682.399C1307.8 682.92 1334.38 688.913 1329.43 680.054C1285.13 600.586 1224.94 532.583 1147.3 484.381C1067.57 434.877 974.296 408.561 880.759 405.174C870.337 404.653 867.21 409.864 875.809 417.16C885.709 425.497 901.082 432.532 914.109 433.053C988.366 435.919 1059.76 453.115 1122.81 493.24C1187.69 534.667 1238.23 596.157 1275.23 662.858C1292.69 667.548 1310.14 672.237 1327.34 676.927C1314.57 663.118 1307.54 646.183 1299.72 629.247C1290.08 608.142 1278.36 588.08 1267.68 567.497C1246.05 526.069 1225.73 484.381 1207.49 441.391C1172.31 358.536 1138.44 273.597 1137.66 182.144C1137.4 165.99 1083.99 150.878 1083.47 159.476C1081.64 185.792 1072.78 209.762 1062.1 233.733C1050.38 260.569 1039.43 287.667 1027.97 314.503C1004.78 367.916 970.649 415.857 938.862 464.319C933.39 473.438 984.979 500.275 993.316 487.247Z" fill="black"/>
<path d="M1191.34 315.545C1181.96 319.975 1194.72 341.6 1197.07 348.114C1207.23 375.211 1218.43 401.787 1229.64 428.363C1249.18 474.741 1267.15 526.851 1295.29 569.06C1302.85 580.264 1352.88 558.638 1353.14 559.159C1326.3 519.295 1309.62 470.051 1290.6 426.018C1279.4 399.703 1268.2 373.127 1257.78 346.29C1254.91 339.255 1242.14 316.848 1245.27 308.771C1243.97 309.813 1242.92 310.855 1241.62 311.898C1241.62 311.898 1241.62 311.898 1241.88 311.898C1252.56 306.687 1232.76 306.947 1230.42 307.208C1217.65 307.989 1203.06 309.813 1191.34 315.545Z" fill="black"/>
<path d="M1185.6 237.902C1167.88 247.542 1196.28 285.582 1203.32 293.92C1220.78 315.545 1241.62 334.566 1262.2 353.065C1286.69 375.211 1312.23 396.576 1338.28 416.899C1356.26 430.708 1375.8 447.123 1397.17 455.46C1391.7 439.046 1386.22 422.631 1380.75 405.956C1343.76 395.013 1307.02 410.125 1269.76 413.512C1226.77 417.42 1183.26 412.73 1140.01 410.907C1123.59 410.125 1146.78 461.714 1164.5 462.235C1205.14 464.059 1245.79 467.446 1286.43 465.361C1321.87 463.537 1362.25 445.039 1396.91 455.2C1419.84 461.974 1394.04 411.167 1380.49 405.696C1347.66 392.668 1313.53 359.578 1285.39 335.608C1266.89 319.714 1248.65 303.039 1231.2 285.843C1224.16 278.808 1217.65 272.034 1214.52 267.865C1213.48 266.823 1212.7 265.52 1211.92 264.478C1207.49 259.006 1215.56 270.21 1212.18 264.999C1215.3 270.21 1220.52 285.061 1216.35 287.146C1230.94 279.85 1201.23 229.564 1185.6 237.902Z" fill="black"/>
<path d="M1373.72 445.038C1385.44 445.038 1366.95 437.743 1364.86 436.961C1352.62 432.792 1338.55 428.624 1325.52 428.624C1313.79 428.624 1332.29 435.919 1334.38 436.701C1346.62 440.869 1360.69 445.038 1373.72 445.038Z" fill="black"/>
<path d="M1328.38 418.462C1317.18 460.671 1333.86 504.183 1354.18 540.66C1375.8 579.482 1404.72 613.874 1435.47 645.661C1498 711.059 1594.4 775.154 1688.2 745.191C1730.15 731.903 1763.76 694.123 1785.39 657.386C1807.01 620.388 1817.96 578.439 1823.17 536.23C1833.07 452.594 1812.48 351.24 1755.68 286.364C1724.16 250.408 1677.52 228.522 1629.84 241.549C1583.2 254.316 1549.85 291.053 1543.6 338.994C1537.6 386.414 1553.24 435.398 1578.51 475.262C1606.91 520.076 1650.42 547.434 1703.31 551.863C1726.24 553.687 1705.92 499.753 1684.29 497.93C1637.92 494.021 1605.09 467.706 1589.45 424.715C1575.65 386.936 1580.33 342.903 1612.64 316.327C1647.3 287.666 1697.06 282.195 1732.24 312.939C1760.9 338.213 1773.66 382.767 1780.44 418.983C1795.81 501.317 1776.79 593.551 1718.43 655.562C1639.22 739.98 1529.01 684.483 1458.92 618.825C1434.43 595.896 1412.54 569.32 1393.52 541.702C1376.85 517.471 1358.61 485.944 1366.94 455.46C1370.59 442.172 1362.78 426.278 1353.14 417.159C1346.1 410.385 1332.03 405.174 1328.38 418.462Z" fill="black"/>
<path d="M1439.64 239.986C1439.64 235.296 1439.64 230.867 1439.64 226.177C1439.64 209.762 1383.36 211.847 1381.02 229.043C1372.68 287.145 1388.83 343.945 1398.21 401.266C1406.03 450.51 1414.11 501.838 1437.82 546.392C1447.98 565.412 1464.91 582.087 1486.28 587.038C1507.64 591.728 1540.47 590.425 1553.24 569.32C1562.36 554.208 1560.53 531.541 1559.75 514.865C1558.97 498.19 1556.63 481.255 1553.24 464.84C1549.33 446.862 1491.49 453.115 1494.62 467.706C1500.35 494.022 1503.21 521.64 1500.87 548.476C1500.35 554.469 1499.04 560.201 1496.44 565.673C1495.92 566.454 1495.4 567.236 1494.88 568.018C1517.28 569.581 1523.02 566.975 1511.55 560.462C1507.9 557.074 1504.52 553.166 1501.39 549.258C1489.14 534.146 1482.63 514.084 1476.9 495.845C1464.13 455.2 1458.92 412.209 1451.89 370C1444.07 321.538 1432.34 275.421 1439.38 226.177C1419.84 227.219 1400.3 228.261 1380.76 229.043C1380.76 233.733 1380.76 238.162 1380.76 242.852C1381.02 259.006 1439.64 257.182 1439.64 239.986Z" fill="black"/>
<path d="M1379.19 321.538C1358.87 313.982 1338.28 310.855 1318.22 320.496C1307.28 325.707 1305.98 334.826 1316.14 341.861C1377.37 384.07 1461.52 366.352 1530.05 358.275C1537.6 357.494 1557.41 354.107 1552.2 341.6C1547.51 330.136 1527.96 326.488 1517.28 327.791C1490.18 330.918 1463.35 335.087 1436.25 336.91C1410.72 338.734 1381.54 339.776 1359.65 324.404C1358.87 331.439 1358.35 338.734 1357.57 345.769C1354.18 345.509 1350.79 345.248 1347.4 344.727C1359.39 349.156 1376.85 351.241 1387.79 342.903C1398.73 335.347 1388.05 324.925 1379.19 321.538Z" fill="black"/>
<path d="M1801.8 240.247C1795.55 233.212 1790.34 226.959 1782.26 222.008C1772.62 215.755 1758.03 213.41 1747.09 216.797C1735.62 220.184 1732.76 231.127 1742.14 238.944C1770.02 262.393 1794.25 285.582 1804.15 321.538C1809.88 342.121 1867.46 348.375 1861.21 325.446C1849.48 282.716 1820.56 253.274 1787.47 225.656C1774.18 231.388 1760.64 237.12 1747.35 242.591C1744.48 240.768 1745 241.549 1748.65 245.197C1758.03 255.88 1772.36 260.83 1786.69 259.527C1795.03 258.746 1811.44 250.929 1801.8 240.247Z" fill="black"/>
<path d="M1837.24 241.289C1834.63 240.768 1832.03 239.986 1829.42 240.247C1822.13 241.028 1835.15 253.535 1836.2 254.316C1848.96 266.301 1856.52 291.314 1861.99 307.729C1868.76 328.312 1870.85 350.198 1870.85 372.085C1870.85 381.204 1891.69 392.668 1897.95 396.316C1900.55 397.879 1919.83 409.343 1919.57 400.745C1919.05 351.501 1904.46 295.744 1867.2 261.091C1869.55 265.78 1871.63 270.47 1873.98 275.16C1874.24 275.421 1874.76 275.421 1875.02 275.681C1887.26 278.547 1873.98 264.217 1871.63 261.872C1862.25 253.013 1850 244.155 1837.24 241.289Z" fill="black"/>
<path d="M69.6692 305.384C60.0289 359.318 85.0416 412.47 104.322 461.714C109.533 475.002 164.77 477.086 160.861 466.925C142.102 418.984 118.131 368.176 127.511 315.545C129.856 303.3 72.0141 293.138 69.6692 305.384Z" fill="black"/>
<path d="M-1.7211 307.729C-14.7486 334.826 -0.678905 363.747 8.44033 389.802C12.6091 402.048 26.9393 408.822 38.6641 411.688C43.0934 412.73 67.8456 415.597 63.6768 403.611C55.5998 380.162 41.2696 353.325 52.9943 329.094C60.8108 312.419 6.87704 289.751 -1.7211 307.729Z" fill="black"/>
<path d="M1787.47 509.394C1787.47 642.275 1787.47 774.894 1787.47 907.775C1787.47 919.76 1808.58 916.373 1808.58 905.43C1808.58 772.549 1808.58 639.93 1808.58 507.049C1808.58 495.064 1787.47 498.451 1787.47 509.394Z" fill="black"/>
<path d="M1731.45 679.794C1731.45 722.524 1731.45 765.514 1731.45 808.244C1731.45 813.195 1752.82 813.195 1752.82 807.984C1752.82 765.254 1752.82 722.263 1752.82 679.533C1753.08 674.582 1731.45 674.583 1731.45 679.794Z" fill="black"/>
<path d="M379.723 468.748C379.723 567.236 379.723 665.724 379.723 764.211C379.723 770.464 397.701 779.844 397.701 774.633C397.701 676.146 397.701 577.658 397.701 479.17C397.44 473.178 379.723 463.537 379.723 468.748Z" fill="black"/>
<path d="M348.196 531.801C348.196 576.094 348.196 620.388 348.196 664.681C348.196 672.758 369.301 675.885 369.301 668.85C369.301 624.557 369.301 580.263 369.301 535.97C369.04 527.893 348.196 524.766 348.196 531.801Z" fill="black"/>
</svg>
