<svg width="1156" height="763" viewBox="0 0 1156 763" fill="none" xmlns="http://www.w3.org/2000/svg">
<path d="M374.224 495.282C370.29 496.336 366.596 498.284 362.854 500.054C360.006 501.584 357.157 503.113 354.488 504.595C351.141 497.826 347.663 491.283 344.495 484.466C337.884 470.522 333.514 456.36 329.716 441.471C325.474 424.209 321.35 405.957 321.949 388.164C322.394 371.946 327.432 356.414 328.462 340.23C328.484 338.883 314.396 344.958 314.087 345.232C307.496 348.531 299.654 352.166 294.354 357.419C293.472 358.422 292.364 359.294 291.566 359.891C282.939 364.886 274.586 370.191 267.654 377.223C261.913 382.977 274.261 377.56 275.822 376.95C280.768 374.667 286.429 372.192 291.494 368.918C289.828 382.014 286.54 394.777 285.864 407.991C285.039 425.652 289.616 444.166 293.631 461.297C297.251 476.235 301.799 490.348 308.41 504.293C314.555 517.212 321.594 529.891 327.56 542.858C329.281 546.422 360.943 527.972 363.348 524.07C368.584 515.001 371.374 504.67 377.063 495.863C378.289 494.001 374.582 495.186 374.224 495.282ZM299.849 355.755C299.67 355.803 299.491 355.851 299.361 356.078C303.984 353.306 301.184 355.014 299.849 355.755ZM158.946 316.274L177.728 386.369C178.207 388.157 180.927 389.728 182.515 390.645C182.741 390.775 186.775 392.953 186.343 391.343L167.992 322.857C171.441 325 174.794 326.784 178.278 328.342L186.04 357.31C186.567 359.277 195.565 354.95 194.703 351.731L189.576 332.598C199.143 335.401 209.627 336.616 219.382 337.261C231.928 338.307 244.426 339.174 257.02 340.399C270.02 341.708 283.722 342.061 296.274 338.123C310.924 333.43 284.986 302.433 271.54 306.611C259.525 310.405 246.477 308.919 233.835 307.515C220.835 306.207 207.848 305.662 194.849 304.354C192.106 304.13 189.315 303.728 186.524 303.326C186.751 303.457 183.685 302.745 183.685 302.745C182.242 302.365 181.025 302.116 179.582 301.736C178.998 301.701 178.544 301.439 177.912 301.226C178.174 300.772 178.209 300.188 178.471 299.734C179.588 296.752 181.255 294.389 183.1 291.978C197.279 272.654 219.612 260.154 241.28 250.898C264.64 240.806 289.723 234.277 314.904 230.979C318.218 230.475 321.402 230.196 325.528 229.858C327.996 229.771 330.595 229.458 333.111 229.55C318.405 246.907 298.196 260.179 280.743 274.439C274.144 279.848 284.689 292.739 288.294 296.18C293.177 300.813 303.632 308.361 310.411 302.903C323.741 291.857 337.848 281.561 350.63 269.895C360.493 260.928 375.895 247.601 374.16 232.542C372.773 219.498 360.811 207.754 349.273 202.605C338.189 197.717 326.096 196.932 314.112 197.269C288.975 197.871 263.558 203.149 239.574 210.917C216.616 218.218 194.424 228.381 175.039 242.583C165.591 249.522 156.705 257.845 150.361 267.786C142.922 279.362 142.387 290.238 148.209 302.668C150.994 308.055 154.66 312.439 158.946 316.274ZM171.458 299.313C171.41 299.135 171.232 299.183 171.184 299.004C171.41 299.135 171.41 299.135 171.458 299.313ZM273.895 430.555C264.606 430.936 255.221 430.959 245.884 431.161C244.826 424.353 243.948 417.497 243.427 410.546C243.04 406.241 243.011 401.841 242.982 397.441C243.039 395.509 243.096 393.577 243.154 391.645C243.189 391.061 243.224 390.476 243.259 389.892C243.224 390.476 243.53 387.328 243.482 387.149C244.331 378.872 246.038 370.94 248.33 363.043C251.609 352.39 239.133 350.175 231.706 351.782C221.239 354.204 210.635 361.836 207.356 372.489C201.262 391.946 200.213 412.35 202.038 432.752C192.082 433.503 182.043 434.66 172.147 436.353C152.225 439.966 133.021 446.262 115.575 455.536C107.088 428.87 99.6743 401.917 91.0088 375.299C89.6322 370.877 70.2919 382.384 68.8263 383.351C64.2507 386.302 59.723 389.432 55.7446 393.181C54.5536 394.459 51.0988 397.301 51.7217 399.625C60.9492 427.626 68.6155 456.236 77.843 484.237C75.9018 486.29 74.1392 488.296 72.2458 490.528C67.4469 496.222 58.5072 509.35 66.3503 516.448C72.1879 521.783 81.4956 517.181 87.6549 512.272C99.3192 543.644 114.18 575.502 138.153 599.168C139.98 600.978 144.08 599.113 145.641 598.503C150.683 596.577 155.712 593.888 160.336 591.116C161.801 590.148 180.592 578.022 177.393 574.663C152.142 549.806 137.338 516.017 125.339 483.393C126.9 482.783 128.462 482.173 130.023 481.563C133.503 480.247 137.032 479.11 140.787 478.104C150.037 475.433 153.71 474.833 161.769 473.44C177.4 470.976 193.235 469.992 209.213 469.543C210.124 472.941 210.986 476.159 212.027 479.33C219.259 503.457 228.994 526.914 241.577 548.84C241.219 548.936 240.862 549.032 240.504 549.128C231.742 551.476 226.362 560.008 227.589 568.879C225.632 567.295 222.972 566.666 220.289 567.385C215.819 568.583 213.201 573.117 214.399 577.588C215.597 582.058 220.131 584.676 224.602 583.478C227.999 582.568 230.333 579.835 230.77 576.459C234.999 582.226 242.276 585.067 249.608 583.103C253.72 582.001 257.092 579.564 259.33 576.473C259.605 576.782 259.88 577.092 260.023 577.629C261.815 580.023 264.082 581.332 266.742 581.961L275.367 614.148C276.181 617.188 290.656 615.418 290.752 615.775L281.073 579.655C281.919 579.236 282.944 578.77 283.79 578.352L319.198 710.496C320.444 715.145 332.095 705.699 330.85 701.049L295.585 569.441C300.039 564.607 303.168 558.402 299.489 553.255C289.79 539.946 281.378 525.718 273.764 510.893C269.676 502.789 265.898 494.41 262.299 485.984C259.632 479.607 257.514 473.85 255.623 468.223C256.208 468.259 256.565 468.163 257.15 468.198C267.965 467.791 277.981 457.25 282.048 448.11C284.855 441.417 284.71 430.148 273.895 430.555ZM233.14 583.874C231.173 584.401 229.995 586.441 230.522 588.408C231.049 590.375 233.09 591.553 235.057 591.026C237.024 590.499 238.202 588.459 237.675 586.492C237.148 584.525 235.107 583.347 233.14 583.874ZM223.954 550.304C223.139 547.264 220.192 545.563 217.152 546.377C214.112 547.192 212.41 550.139 213.225 553.179C214.039 556.219 216.987 557.921 220.027 557.106C223.067 556.292 224.72 553.165 223.954 550.304ZM732.427 478.838C730.735 479.675 729.914 481.62 730.799 483.491C731.636 485.183 733.58 486.004 735.451 485.119C737.144 484.282 737.964 482.338 737.08 480.466C736.243 478.774 734.298 477.954 732.427 478.838ZM690.212 467.918C689.985 467.787 689.711 467.477 689.484 467.346C689.484 467.346 689.484 467.346 689.436 467.168C689.209 467.037 689.161 466.858 688.982 466.906C688.756 466.775 688.756 466.775 688.529 466.644C688.529 466.644 687.849 466.251 687.718 466.478C687.718 466.478 687.587 466.705 687.408 466.753C686.872 466.896 686.514 466.992 686.335 467.04C686.287 466.861 686.108 466.909 686.06 466.73C686.06 466.73 684.199 465.504 684.343 466.041C684.438 466.398 684.713 466.708 684.809 467.066C684.63 467.114 684.403 466.983 684.451 467.162C684.273 467.21 684.643 467.877 684.966 468.365C684.787 468.413 684.656 468.64 684.477 468.688C684.119 468.784 683.762 468.88 683.857 469.237C682.785 469.525 682.954 471.588 683.242 472.66C683.481 473.555 686.167 475.71 687.109 475.649C688.051 475.588 689.219 475.658 690.161 475.598C690.388 475.729 690.388 475.728 690.615 475.859C691.391 476.61 693.575 478.324 694.016 477.823C694.457 477.321 693.632 476.392 693.31 475.904C693.31 475.904 693.489 475.856 693.441 475.677C693.834 474.997 693.594 474.103 693.354 473.209C693.485 472.982 693.259 472.851 693.163 472.494L693.115 472.315C693.294 472.267 693.473 472.219 693.425 472.04C693.83 472.123 694.009 472.075 694.14 471.848C694.14 471.848 694.14 471.849 694.092 471.67C694.044 471.491 693.769 471.181 693.495 470.871C693.626 470.645 693.578 470.466 693.756 470.418C694.066 470.143 691.298 468.394 690.212 467.918ZM579.137 442.484C576.42 443.787 574.993 447.044 576.344 449.94C577.647 452.658 580.904 454.085 583.8 452.734C586.518 451.431 587.945 448.174 586.594 445.277C585.243 442.381 581.855 441.181 579.137 442.484ZM598.077 564.667C597.707 564 597.205 563.559 596.835 562.892C596.56 562.582 596.107 562.32 595.653 562.059C593.255 560.976 590.215 561.791 588.727 564.106C588.025 565.061 587.645 566.504 587.933 567.577C588.076 568.113 588.22 568.65 588.543 569.138C588.734 569.854 589.105 570.521 589.475 571.188C589.893 572.035 590.395 572.475 591.254 572.82C591.529 573.13 591.624 573.487 591.899 573.797C593.285 576.109 596.255 576.463 598.388 575.125C600.39 574.013 602.139 571.245 600.753 568.933C599.834 567.646 599.045 566.133 598.077 564.667ZM1073.54 244.846C1053.58 240.422 1033.44 236.809 1013.51 231.801C1012.47 231.504 1011.26 231.255 1010.22 230.958C1009.59 230.744 1005.43 229.557 1004.58 229.212C999.565 227.679 994.685 225.92 989.758 223.983C988.267 223.424 986.776 222.865 985.236 222.128C987.408 223.079 981.072 220.177 979.987 219.701C974.916 217.227 969.976 214.526 964.987 211.646C964.033 210.944 962.947 210.468 961.992 209.766C963.627 210.861 963.579 210.682 961.765 209.635C959.45 208.147 957.087 206.48 954.724 204.814C949.998 201.48 945.629 198.051 941.213 194.443C932.153 187.096 927.401 182.237 919.663 173.386C905.238 156.744 894.603 138.512 888.055 117.651C885.158 108.27 870.188 104.615 861.959 103.945C856.473 103.498 840.232 104.4 843.177 113.961C857.985 161.356 893.982 197.708 935.058 223.69C967.328 243.984 1003.76 252.621 1040.35 260.448C1038.89 261.415 1037.37 262.204 1035.86 262.993C1033.99 263.878 1032.12 264.762 1030.25 265.647C1029.58 266.018 1029.04 266.161 1028.33 266.353C1028.68 266.257 1026.41 267.059 1025.87 267.203C1021.5 268.758 1017.2 269.908 1012.69 270.927C1004.59 272.904 996.449 274.703 988.307 276.501C981.416 277.964 974.477 279.249 967.538 280.533C964.403 280.99 961.315 281.626 958.179 282.082C958 282.13 954.865 282.587 954.507 282.683C953.029 282.888 951.55 283.092 950.072 283.297C947.294 283.658 944.516 284.019 941.737 284.38C939.185 274.139 936.049 263.864 932.197 253.78C927.029 240.216 920.526 227.392 911.974 215.502C903.792 204.278 891.216 188.099 875.052 193.58C864.336 197.218 855.249 206.936 853.964 218.588C852.984 227.092 858.668 234.001 866.61 233.598L866.837 233.729C867.839 234.61 868.842 235.492 869.797 236.194C871.85 238.135 873.821 240.482 875.743 242.65C876.066 243.139 876.567 243.579 876.89 244.068C877.81 245.355 878.729 246.641 879.649 247.928C887.748 259.557 893.535 272.572 898.428 285.827C898.99 287.209 899.326 288.461 899.888 289.844C896.931 290.253 893.974 290.662 891.065 291.249C890.669 289.056 890.273 286.862 889.519 284.764C886.239 273.952 877.07 265.485 868.071 259.08C858.07 251.794 846.842 246.37 835.972 240.849C833.752 239.719 831.306 238.458 829.087 237.328C828.86 237.197 827.774 236.721 827.273 236.281C826.593 235.888 825.913 235.495 825.232 235.103C820.925 232.616 816.617 230.128 812.44 227.415C803.275 221.821 793.382 215.656 785.848 208.283C778.088 200.78 771.912 191.319 773.699 180.107C774.8 173.488 755.443 170.625 751.841 170.057C748.239 169.489 729.06 166.578 728.007 173.377C725.202 190.802 738.502 204.679 752.419 215.132C750.535 215.254 748.52 215.602 746.732 216.081C721.864 221.978 706.37 248.553 696.904 270.446C694.181 276.734 692.316 283.367 691.442 290.117C689.19 281.713 686.89 273.13 685.175 264.582C681.312 245.876 683.233 226.579 679.371 207.874C678.592 204.25 659.05 217.152 658.121 217.976C653.82 221.237 649.388 224.724 645.685 228.783C644.184 230.335 641.623 232.937 642.067 235.31C645.738 253.3 644.031 271.965 647.571 290.182C648.842 296.357 650.065 302.354 651.695 308.433C638.319 311.443 625.147 315.93 612.56 320.453C608.543 321.913 604.526 323.372 600.509 324.832C593.479 310.042 585.913 295.395 576.751 281.943C567.589 268.491 555.827 255.352 540.675 248.871C530.319 244.554 516.237 245.644 509.034 255.241C502.271 264.335 507.496 275.968 517.22 280.07C518.306 280.546 519.165 280.891 520.072 281.414C520.119 281.593 520.298 281.545 520.346 281.724C522.208 282.95 523.76 284.451 525.491 285.904C526.04 286.523 527.091 287.583 527.592 288.024C528.691 289.262 529.789 290.501 530.709 291.788C533.05 294.802 535.439 297.995 537.601 301.057C539.44 303.631 541.101 306.252 542.631 309.101C536.436 314.593 534.432 323.563 537.936 331.632C538.772 333.325 539.788 334.969 540.934 336.387C539.944 336.269 539.05 336.508 538.204 336.927C535.487 338.23 534.06 341.487 535.411 344.383C536.714 347.1 539.971 348.527 542.867 347.176C545.453 346.1 546.75 343.07 545.9 340.614C549.301 342.578 553.404 343.586 557.53 343.247C549.103 346.847 540.546 350.673 532.071 354.094C522.262 358.255 519.472 368.586 526.434 376.686C530.375 381.38 536.401 384.557 542.663 385.754L587.558 553.303C588.037 555.092 597.824 552.278 597.345 550.489L553.264 385.979C554.921 385.727 556.531 385.296 558.092 384.686C563.802 382.389 569.463 379.914 575.124 377.439C575.543 378.285 575.734 379 576.153 379.846C579.813 389.215 582.985 398.906 585.441 408.789C586.064 411.113 586.508 413.486 587.083 415.632C587.227 416.168 587.971 420.377 588.019 420.556C588.68 425.17 589.211 430.011 589.336 434.768C589.803 446.526 601.676 452.927 612.408 452.926C622.377 452.938 636.012 446.602 635.545 434.844C634.655 408.634 626.647 383.757 616.59 359.812C621.941 357.611 627.341 355.59 632.74 353.568C640.059 350.84 647.426 348.291 654.888 346.1C655.245 346.004 655.782 345.861 656.139 345.765L686.133 457.703C686.469 458.955 691.549 459.319 691.166 457.888L660.741 344.34C661.277 344.197 661.814 344.053 662.35 343.909C663.631 347.974 664.912 352.039 666.419 356.234C673.338 377.762 679.898 399.386 687.711 420.675C695.702 441.915 704.766 462.868 714.319 483.499C716.088 487.241 732.995 475.236 735.438 473.624C738.807 479.045 745.762 481.398 751.733 478.648C758.241 475.755 761.165 468.071 758.271 461.564C756.824 458.31 754.091 455.976 750.882 454.728C741.795 435.123 733.245 415.373 725.542 395.206C721.176 383.918 717.298 372.308 713.647 360.829C720.5 367.808 728.723 373.463 737.911 377.709C757.013 386.773 779.711 390.657 801.364 388.497C801.555 389.212 801.878 389.7 802.07 390.416C802.584 391.619 803.277 392.775 804.149 393.883C803.162 396.639 803.261 399.871 804.612 402.767C807.362 408.738 814.413 411.448 820.563 408.65C824.174 407.108 826.543 403.79 827.338 400.319C827.517 400.271 827.875 400.175 828.053 400.127C836.921 396.026 841.25 386.434 838.806 377.314C841.476 375.832 844.145 374.35 846.588 372.737L857.704 414.223C857.943 415.117 862.902 413.596 862.615 412.523L851.115 369.608C852.223 368.736 853.51 367.816 854.618 366.944L882.695 471.73C884.324 477.81 896.93 469.066 895.493 463.701L866.649 356.054C870.27 352.401 873.437 348.486 876.557 344.392C881.997 336.801 886.614 328.281 889.43 319.477C893.948 318.458 898.514 317.618 902.901 316.826C904.559 316.574 905.989 316.19 907.646 315.938C913.69 344.216 914.514 374.469 913.044 401.886C912.495 411.999 919.349 418.978 929.672 416.021C935.883 414.165 942.269 409.387 946.388 403.301L959.132 450.865C959.276 451.402 968.967 448.23 968.68 447.157L951.191 381.89C951.997 357.717 951.098 333.618 947.468 310.059C959.523 308.554 971.708 306.822 983.666 304.96C1005.21 301.678 1026.74 297.634 1047.79 291.801C1064.91 287.023 1088 279.494 1093.83 260.491C1096.65 251.687 1079.04 246.056 1073.54 244.846ZM865.978 233.384C865.166 233.218 865.345 233.171 865.978 233.384V233.384ZM846.227 300.581C826.64 305.446 807.437 311.741 788.952 320.719C779.287 325.417 788.015 334.386 793.814 337.432C802.787 342.31 815.895 344.739 825.609 340.22C826.991 339.658 828.326 338.917 829.53 338.402C823.945 345.457 817.358 351.63 810.401 357.135C802.288 363.334 794.41 367.553 785.304 370.76C783.027 371.561 780.702 372.184 778.378 372.807L778.199 372.855C778.02 372.903 777.841 372.951 777.484 373.047C776.411 373.334 775.29 373.443 774.348 373.504C773.764 373.469 773.358 373.386 772.952 373.303C772.952 373.303 772.774 373.351 772.726 373.172C771.64 372.696 770.506 372.042 769.421 371.566C769.194 371.435 769.194 371.435 769.015 371.483C768.788 371.352 768.788 371.352 768.562 371.221C767.428 370.567 766.473 369.864 765.566 369.34C763.251 367.853 761.019 365.959 759.013 364.197C753.271 359.219 746.868 349.627 743.138 341.427C734.793 323.157 734.922 301.465 741.338 282.497C745.105 271.522 751.258 260.865 757.924 251.413C763.186 243.87 769.843 236.528 778.078 232.214C783.341 235.403 788.556 238.414 793.949 241.377C798.436 243.816 803.28 246.159 807.946 248.551C810.392 249.812 812.838 251.073 815.284 252.334C815.511 252.465 817.098 253.381 817.551 253.643C818.912 254.428 820.272 255.214 821.632 255.999C831.024 261.724 838.806 267.88 843.779 277.855C847.078 284.445 847.219 292.84 846.227 300.581ZM973.164 457.455C972.615 456.836 971.851 456.848 970.957 457.088C970.861 456.73 970.635 456.599 970.229 456.516C971.015 455.156 969.44 455.003 968.546 455.243C966.579 455.77 964.577 456.881 963.029 458.254C962.719 458.529 962.1 459.078 961.659 459.58C960.372 460.499 958.597 461.742 958.98 463.172C959.124 463.709 959.577 463.97 959.852 464.28C959.555 465.318 959.843 466.391 961.024 467.224C962.027 468.105 963.279 467.77 964.483 467.256C965.15 466.885 965.996 466.467 966.663 466.096C966.842 466.049 967.069 466.179 967.248 466.132C967.832 466.167 968.547 465.975 969.036 465.652C970.24 465.138 971.395 464.445 972.551 463.752C973.171 463.203 975.614 461.59 974.921 460.434C974.633 459.361 973.988 458.384 973.164 457.455ZM802.182 394.41C801.345 392.718 799.4 391.898 797.529 392.782C795.837 393.619 795.016 395.564 795.901 397.435C796.738 399.127 798.682 399.948 800.554 399.063C802.246 398.226 803.018 396.103 802.182 394.41ZM838.967 392.22C836.25 393.523 834.823 396.78 836.174 399.676C837.477 402.394 840.734 403.821 843.63 402.47C846.347 401.167 847.775 397.909 846.424 395.013C845.073 392.117 841.863 390.869 838.967 392.22ZM440.426 461.253C438.734 462.09 437.961 464.213 438.619 465.953C439.456 467.646 441.401 468.466 443.32 467.76C445.012 466.924 445.785 464.8 445.127 463.06C444.242 461.189 442.118 460.416 440.426 461.253ZM458 448.878C455.283 450.181 453.856 453.438 455.207 456.334C456.51 459.051 459.767 460.478 462.663 459.127C465.381 457.824 466.808 454.567 465.457 451.671C464.106 448.775 460.718 447.575 458 448.878ZM505.093 359.981C492.125 355.215 477.694 354.29 464.691 350.108C450.424 345.498 437.082 337.191 424.992 328.548C414.859 321.489 405.071 313.57 396.081 305.055C391.473 300.731 387.044 296.36 382.615 291.989C381.612 291.108 380.74 290 379.737 289.119C379.463 288.809 379.236 288.678 379.188 288.499C378.687 288.059 378.364 287.57 377.863 287.13C377.313 286.51 376.764 285.891 376.215 285.271C375.94 284.962 375.844 284.604 375.618 284.473C375.371 277.831 355.331 282.434 353.006 283.057C346.033 284.926 339.072 287.558 332.804 291.345C329.157 293.472 324.045 296.567 322.273 300.683C321.108 303.487 323.292 305.201 324.94 307.06C328.188 310.598 331.615 314.087 334.993 317.398C340.975 323.27 346.956 329.142 353.199 334.56C364.862 344.468 376.917 353.695 390.115 361.466C403.54 369.368 417.772 374.563 432.873 377.991C439.589 379.449 446.483 380.86 453.246 382.498C453.425 382.45 455.322 383.091 455.728 383.174C456.587 383.519 457.446 383.864 458.305 384.209C460.703 385.291 463.018 386.779 464.976 388.363C466.706 389.815 466.432 389.506 467.77 391.639C468.738 393.104 469.217 394.892 469.696 396.681C469.744 396.859 469.817 398.564 469.948 398.338C469.913 398.922 469.699 399.554 469.485 400.187C469.189 401.225 468.844 402.084 468.272 402.812C468.01 403.265 467.522 403.588 467.26 404.041C467.081 404.089 466.902 404.137 466.724 404.185C466.545 404.233 466.545 404.233 466.366 404.281C465.83 404.424 465.162 404.795 464.626 404.939C463.91 405.13 463.195 405.322 462.301 405.561C461.765 405.705 460.871 405.945 459.977 406.184C458.725 406.52 457.604 406.628 456.304 406.785C443.5 409.066 430.36 410.095 417.555 412.376C414.825 412.916 412.095 413.456 409.365 413.996C400.426 397.801 390.331 382.299 378.639 367.991C371.115 358.508 357.342 348.591 344.512 349.346C331.455 349.969 337.076 363.796 342.163 369.907C344.408 372.563 346.523 375.447 348.589 378.151C349.735 379.569 350.703 381.034 351.671 382.5C351.945 382.81 352.364 383.656 352.913 384.275C356.688 389.78 360.153 395.56 363.439 401.387C367 407.524 370.251 413.936 373.324 420.395C374.065 421.73 374.627 423.112 375.237 424.674C366.632 428.321 358.17 432.505 350.305 437.487C346.349 439.889 332.291 450.364 344.85 452.173C356.824 453.948 372.177 448.301 382.174 441.98L382.353 441.933C391.887 466.784 398.524 492.987 402.694 519.277C403.595 524.785 408.992 530.621 412.776 534.015C418.112 538.91 424.426 543.16 431.202 545.561C435.676 547.237 441.628 548.708 446.443 546.651C450.901 544.69 450.788 540.696 450.092 536.666C446.066 510.913 439.572 485.247 430.492 460.657C433.235 460.88 436.144 460.292 438.909 459.168C447.109 455.437 451.128 446.119 448.471 437.632C450.69 438.762 453.433 438.986 455.841 437.957C460.12 436.044 461.879 431.165 459.966 426.886C459.595 426.219 459.273 425.73 458.902 425.063C473.159 421.051 487.033 415.608 499.796 408.164C510.783 401.962 523.865 392.132 522.954 378.002C522.717 369.25 512.728 362.727 505.093 359.981ZM375.56 286.405C375.691 286.178 375.774 285.773 375.905 285.546C375.774 285.773 375.691 286.178 375.56 286.405ZM375.844 284.604C375.749 284.246 375.749 284.246 375.844 284.604V284.604ZM444.54 430.828C444.038 430.387 443.537 429.946 443.035 429.506C443.572 429.362 444.108 429.218 444.824 429.027C444.61 429.659 444.575 430.243 444.54 430.828Z" fill="black"/>
<path d="M243.067 677.424C311.294 622.345 384.801 574.093 461.786 532.383C544.467 487.613 631.724 450.625 722.693 426.059C830.423 396.809 946.856 385.735 1055.73 416.55C1064.84 419.091 1069.81 412.586 1066.03 404.207C1061.64 394.267 1051.4 386.087 1041.02 383.118C864.738 333.185 674.038 384.666 512.366 458.651C403.814 508.436 300.801 572.452 207.853 647.571C196.511 656.743 230.046 688.196 243.067 677.424Z" fill="black"/>
</svg>
