<svg width="1449" height="877" viewBox="0 0 1449 877" fill="none" xmlns="http://www.w3.org/2000/svg">
<path d="M497.027 -227.253C497.268 -214.6 479.564 -197.315 472.489 -188.075C461.356 -173.629 449.154 -159.711 440.037 -143.756C457.702 -128.371 475.366 -112.986 493.031 -97.6017C503.872 -131.735 497.575 -168.766 487.93 -202.336C475.87 -244.058 449.87 -279.832 413.749 -304.035C390.979 -319.335 361.649 -329.13 340.73 -306.17C323.28 -287.123 318.212 -255.558 316.209 -230.919C311.041 -166.458 353.463 -108.855 383.539 -55.7692C398.96 -28.3977 412.707 0.703871 416.149 32.1279C420.397 69.5778 406.269 106.945 381.969 135.294C370.34 148.881 355.747 159.98 340.508 168.968C333.348 173.102 326.189 177.236 318.203 179.937C315.581 180.687 312.733 181.377 310.007 181.614C290.905 184.242 340.375 217.348 333.749 203.227C323.353 180.591 323.332 148.147 320.906 123.773C315.844 74.0015 308.687 0.428765 348.076 -38.1588C332.92 -47.5457 317.763 -56.9325 302.607 -66.3194C325.877 -40.2338 327.506 7.89211 330.524 40.8972C331.834 54.0782 348.853 67.3534 358.605 74.3238C360.396 75.772 386.087 92.823 385.092 81.1787C380.675 33.5164 373.448 -19.0144 340.551 -56.1521C335.377 -62.138 305.291 -94.4072 295.082 -84.3127C270.456 -60.1672 265.379 -21.3428 263.864 11.4159C261.981 49.1597 266.047 87.287 271.546 124.588C274.041 141.476 275.903 158.92 283.069 174.639C293.134 196.702 315.658 216.536 337.502 226.262C355.688 234.282 372.084 227.297 388.408 217.873C411.032 204.811 430.466 189.199 445.629 167.844C488.161 107.586 469.312 37.9002 436.788 -21.4087C407.18 -75.337 365.597 -128.843 370.825 -193.529C372.921 -220.322 386.099 -282.152 425.262 -270.206C431.299 -268.346 418.474 -274.688 415.586 -278.366C419.091 -274.28 421.616 -269.246 423.975 -264.499C430.286 -251.914 434.879 -238.338 438.221 -224.612C444.487 -199.21 448.231 -168.915 440.202 -143.469C435.228 -127.615 487.355 -87.2608 493.197 -97.3154C502.842 -114.339 516.31 -129.37 528.198 -144.825C536.374 -155.464 552.073 -171.592 551.639 -186.233C551.459 -199.112 532.467 -213.157 523.618 -219.886C521.271 -221.967 496.77 -238.942 497.027 -227.253Z" fill="black"/>
<path d="M456.068 -71.6785C456.338 -70.8799 456.548 -69.8554 456.818 -69.0568C456.45 -64.0716 456.022 -58.8605 455.655 -53.8754L455.941 -54.0408C452.9 -55.3398 449.859 -56.6387 446.592 -57.9982C441.733 -62.4474 450.803 -52.0285 452.412 -49.9028C456.848 -43.8726 462.777 -38.895 468.193 -33.8125C485.571 -18.2625 505.273 -5.9631 525.503 5.26744C568.658 29.4187 613.426 52.0656 662.866 59.9873C656.724 44.0592 650.523 28.3569 644.381 12.4287C611.865 10.01 581.731 17.6706 555.319 36.738C543.319 45.3844 569.729 90.4674 579.031 83.7607C603.95 65.746 632.051 57.5405 662.866 59.9873C676.119 61.1178 657.844 14.5837 644.381 12.4287C596.809 4.76534 555.142 -16.8085 513.326 -39.6327C493.713 -50.4558 475.08 -62.2267 458.545 -77.3088C455.972 -79.4507 444.119 -93.036 455.911 -79.2248C454.242 -81.1247 452.858 -83.1899 451.475 -85.2551C448.483 -89.446 445.325 -93.9233 441.413 -97.3923C439.683 -99.0663 435.214 -103.169 432.064 -101.35L431.778 -101.184C427.196 -98.539 429.429 -89.7098 430.615 -86.003C431.469 -82.869 432.55 -79.6746 433.917 -76.6454C437.522 -68.4171 443.95 -52.6543 454.295 -50.6085C464.007 -48.0061 457.435 -68.6494 456.068 -71.6785Z" fill="black"/>
<path d="M487.046 -18.3509C471.744 68.5702 456.322 155.943 449.393 244.139C448.323 257.167 496.839 269.44 497.113 266.609C504.042 178.413 519.404 91.2658 534.767 4.11884C536.724 -7.7027 487.744 -22.7633 487.046 -18.3509Z" fill="black"/>
<path d="M538.037 79.5546C529.755 103.238 528.518 129.535 527.479 154.191C526.36 183.666 527.333 213.46 530.582 242.896C531.742 254.827 536.968 267.847 543.493 277.826C548.861 285.8 552.749 283.937 551.826 274.733C549.296 249.847 548.753 224.768 549.175 199.704C549.701 175.154 550.591 149.248 558.813 125.79C562.032 116.486 555.241 102.078 551.636 93.8498C551.366 93.0512 540.651 72.5086 538.037 79.5546Z" fill="black"/>
<path d="M536.301 81.5101C547.843 140.523 593.84 181.171 625.699 229.408C628.455 217.316 631.15 205.451 633.906 193.359C593.961 180.719 552.657 171.346 511.227 166.055C489.947 163.258 504.648 213.192 524.286 215.791C562.946 220.582 601.028 229.333 638.323 241.021C659.989 247.795 652.724 214.378 646.53 204.972C620.699 165.854 577.74 130.135 568.443 82.618C566.512 72.6595 557.462 57.6466 545.955 57.2262C533.258 56.729 534.729 73.8265 536.301 81.5101Z" fill="black"/>
<path d="M564.93 186.98C567.679 205.631 563.092 225.462 562.211 244.108C560.93 269.668 564.287 295.985 567.948 321.174C575.522 373.313 592.764 427.317 631.323 465.004C642.878 476.088 656.356 490.836 673.595 484.319C692.205 477.202 704.574 450.014 713.691 434.059C741.041 386.194 733.378 332.578 723.468 281.023C721.807 271.863 709.559 261.561 703.421 255.559C702.473 254.579 686.599 240.642 687.542 245.252C695.835 288.386 702.713 331.382 687.931 373.9C681.085 393.126 669.661 411.368 657.531 427.726C652.884 434.227 647.289 439.749 640.747 444.29C638.109 446.003 635.201 446.919 632.127 447.548C621.596 449.81 624.17 438.395 633.655 454.493C611.935 417.203 604.731 370.004 600.565 327.735C598.779 309.101 597.628 289.91 599.021 271.159C600.079 255.465 603.654 238.51 601.368 222.646C600.098 213.833 587.294 202.898 581.321 197.182C580.147 196.141 564.273 182.205 564.93 186.98Z" fill="black"/>
<path d="M673.743 209.117C726.584 207.056 749.554 156.565 753.962 110.299C755.746 91.8948 755.139 70.6713 743.831 55.0533C729.2 34.6716 695.565 48.1724 679.677 58.6819C638.328 85.6089 633.193 148.141 636.815 192.444C638.684 216.184 645.87 240.865 662.07 259.004C679.158 278.349 707.818 280.703 731.337 275.143C741.191 272.7 757.103 267.523 758.894 255.415C760.565 243.758 743.17 242.728 735.938 244.422C704.328 252.171 692.086 211.127 688.14 186.104C682.802 152.719 686.496 111.83 704.516 82.525C705.799 80.4479 707.186 78.8832 708.921 76.9271C707.533 78.492 716.322 71.8901 711.454 74.7009C707.158 77.1811 700.455 77.8056 696.058 76.1435C697.805 76.8535 695.954 75.6313 698.345 78.4508C704.407 85.6428 704.566 103.115 703.997 113.372C703.346 128.448 700.647 143.944 695.192 157.976C692.941 163.667 690.222 170.2 686.798 174.851C686.33 175.693 680.388 181.606 683.207 179.214C680.041 181.997 688.06 177.367 691.238 177.251C679.715 177.794 664.601 182.702 658.805 193.494C652.782 204.227 664.885 209.648 673.743 209.117Z" fill="black"/>
<path d="M809.129 229.658C826.84 218.669 837.938 196.224 846.018 177.813C856.333 154.675 861.442 127.478 850.61 103.757C839.779 80.0361 813.035 61.4926 786.415 65.9794C765.369 69.539 757.005 98.042 753.083 115.389C743.468 157.597 743.456 205.525 748.179 248.428C751.025 274.851 756.173 302.617 771.223 325.047C788.379 350.463 816.894 361.492 840.087 338.174C853.705 324.393 816.093 287.686 802.476 301.467C799.188 304.702 796.127 307.997 791.726 309.964C783.724 313.63 797.13 312.381 801.401 318.125C799.792 315.999 796.748 304.774 795.474 299.591C792.01 286.317 790.265 272.051 789.589 258.313C788.063 224.256 787.396 189.702 792.784 156.044C795.016 141.391 798.304 124.601 808.199 112.97C811.382 109.223 815.044 107.299 819.864 107.381C814.818 107.239 812.936 94.3885 813.991 105.807C816.683 134.609 795.815 178.159 771.049 193.795C756.73 202.062 791.704 240.482 809.129 229.658Z" fill="black"/>
<path d="M717.548 -21.2236C713.049 -50.5101 698.261 -78.4382 687.66 -105.729C684.071 -114.921 676.356 -124.977 666.132 -127.474C657.489 -129.548 651.757 -122.611 652.184 -114.266C655.06 -76.2155 682.65 -47.278 711.543 -25.0115C742.617 -0.949987 777.75 17.9048 813.262 34.4405C850.069 51.5652 889.215 64.4753 928.047 75.8486C951.868 82.7154 976.277 88.2875 1000.96 91.0283C1012.45 92.4127 1023.96 92.8331 1035.59 92.8018C1041.88 92.7943 1048.36 92.1093 1054.61 91.3636C1057.11 91.0654 1063.62 88.4523 1065.2 88.876C1060.25 73.0245 1055.53 57.2336 1050.51 41.608C1014.17 44.4564 980.785 59.7197 957.675 88.1447C945.05 103.644 976.163 145.629 990.991 127.331C1010.51 103.27 1039.52 91.6769 1069.74 89.1223C1093.99 87.1481 1068.6 45.4857 1055.05 41.8545C1048.5 40.0994 1041.82 42.426 1035.22 43.5628C1025.67 44.8769 1015.91 45.1664 1006.5 45.0648C983.589 44.7361 960.926 39.8741 938.671 34.3949C901.162 25.3126 861.277 12.4469 827.209 -2.24943C798.093 -14.6504 769.643 -29.536 742.641 -46.2121C728.554 -55.0705 714.995 -64.9977 702.762 -76.2639C700.085 -78.918 694.459 -85.0249 693.571 -86.231C690.248 -90.9946 690.039 -92.0191 689.724 -93.5558C677.919 -96.4769 666.114 -99.3981 654.534 -102.259C663.724 -78.7355 676.77 -55.1476 680.716 -30.1244C684.32 -8.34005 722.704 12.8383 717.548 -21.2236Z" fill="black"/>
<path d="M896.045 46.2134C858.292 152.779 819.978 262.341 842.329 376.781C843.99 385.941 857.037 395.973 863.296 401.523C864.079 402.217 881.038 415.718 880.215 410.656C858.074 297.241 896.372 188.643 933.822 83.2064C937.647 71.6432 895.803 47.1168 896.045 46.2134Z" fill="black"/>
<path d="M966.576 290.728C1005.67 255.936 1045.49 222.063 1078.62 181.555C1094.08 162.701 1107.92 142.685 1123.32 124.056C1139.47 104.419 1154.56 84.2538 1162.8 59.8326C1148.97 49.1068 1134.91 38.3204 1121.08 27.5946C1099.97 109.086 1108.52 191.02 1120.13 273.289C1126.37 316.842 1134.89 360.035 1144.43 403.019C1148.81 422.832 1154.14 442.66 1157.49 462.682C1160.22 479.63 1163.28 496.187 1171.31 511.41C1175.98 520.166 1184.26 527.225 1192.51 532.582C1193.74 533.397 1215.39 544.765 1213.15 535.936C1193.21 456.76 1156.84 383.83 1100.73 324.011C1043.11 262.578 968.364 218.1 888.067 193.437C879.153 190.565 875.233 194.356 880.992 202.677C887.638 212.204 899.33 221.873 910.502 225.351C974.206 245.084 1032.1 276.573 1077.44 326.001C1124.05 376.982 1153.59 442.027 1170.17 508.441C1184.21 516.561 1198.25 524.682 1212.07 532.741C1204.21 517.805 1202.05 501.49 1199.21 484.994C1195.75 464.46 1190.25 444.345 1185.77 424.021C1176.64 383.085 1168.71 342.227 1162.89 300.724C1151.64 220.729 1142.01 139.231 1162.57 59.7721C1166.1 45.7082 1123.31 20.2017 1120.86 27.5341C1113.16 49.9225 1099.92 68.6441 1085.09 86.942C1068.69 107.482 1052.91 128.43 1036.74 149.031C1004.23 189.946 963.508 223.577 924.696 258.204C917.835 264.838 956.322 300.085 966.576 290.728Z" fill="black"/>
<path d="M1178.11 187.88C1168.95 189.541 1175 211.253 1175.52 217.445C1178.03 243.294 1181.57 268.935 1185.11 294.575C1191.28 339.317 1194.76 388.665 1209.35 431.791C1213.29 443.258 1261.68 436.131 1261.79 436.644C1247.78 395.853 1244.77 349.292 1238.51 306.704C1234.91 281.289 1231.37 255.649 1228.57 229.965C1227.72 223.201 1221.85 200.811 1226.44 194.536C1225.07 195.136 1223.92 195.798 1222.55 196.399C1222.55 196.399 1222.55 196.399 1222.78 196.459C1233.25 194.423 1216.02 190.05 1213.93 189.731C1202.68 187.443 1189.61 185.635 1178.11 187.88Z" fill="black"/>
<path d="M1191.18 119.242C1173.58 123.484 1189.36 163.056 1193.53 171.918C1203.64 194.719 1217.29 216.049 1230.83 236.866C1246.92 261.753 1264.09 286.205 1281.96 309.874C1294.33 326.02 1307.46 344.788 1324.05 356.979C1323.11 341.478 1322.18 325.978 1321.31 310.252C1291.78 292.172 1256.43 296.739 1223.34 291.021C1185.17 284.423 1148.54 270.251 1111.47 258.624C1097.42 254.133 1105.54 304.24 1120.78 308.807C1155.59 319.829 1190.04 332.206 1225.75 339.841C1256.9 346.49 1296.2 339.835 1323.88 356.692C1342.18 367.89 1331.62 317.856 1321.15 309.966C1295.72 291.047 1273.81 254.435 1254.99 227.119C1242.65 209.045 1230.71 190.354 1219.57 171.392C1215.11 163.66 1211.03 156.274 1209.29 151.934C1208.63 150.789 1208.25 149.478 1207.82 148.393C1205.25 142.621 1209.65 154.209 1207.92 148.905C1209.42 154.148 1210.49 168.233 1206.39 169.072C1220.74 166.137 1206.67 115.646 1191.18 119.242Z" fill="black"/>
<path d="M1306.14 342.497C1316.3 345.22 1301.96 334.599 1300.34 333.437C1290.69 326.979 1279.46 320.097 1268.17 317.071C1258 314.348 1272.35 324.969 1273.97 326.131C1283.62 332.589 1294.85 339.471 1306.14 342.497Z" fill="black"/>
<path d="M1273.01 308.928C1253.5 342.916 1257.84 384.508 1266.99 420.849C1276.72 459.525 1293.8 496.057 1313.07 530.753C1352.08 601.969 1420.77 679.923 1509.04 675.736C1548.49 673.961 1586.4 649.018 1613.68 622.195C1641.02 595.145 1660.25 561.323 1674.57 525.944C1702.58 455.742 1708.28 363.101 1674.11 293.669C1655.13 255.177 1619.79 225.371 1575.43 225.589C1532.03 225.824 1494.59 249.924 1478.03 290.03C1461.82 329.745 1464 375.838 1476.65 416.265C1490.86 461.71 1522.22 495.532 1567.04 511.657C1586.49 518.564 1581.4 467.09 1563.08 460.486C1523.79 446.325 1501.44 415.888 1497.87 374.99C1494.68 339.032 1508.97 301.951 1543.15 286.417C1579.85 269.622 1624.26 276.438 1647.61 311.26C1666.58 339.825 1667.3 381.413 1664.76 414.381C1658.96 489.324 1621.05 564.861 1556.05 605.06C1467.78 659.841 1385.14 586.133 1339.63 512.936C1323.72 487.372 1310.92 459.25 1300.85 430.891C1292.03 406.013 1283.54 374.447 1297.85 349.958C1304.09 339.286 1301.01 323.693 1294.77 313.548C1290.25 306.042 1279.26 298.257 1273.01 308.928Z" fill="black"/>
<path d="M1410.91 180.056C1412 175.99 1413.03 172.15 1414.12 168.085C1417.93 153.856 1368.66 142.59 1362.63 156.953C1341.91 205.383 1342.72 258.373 1337.54 310.241C1332.87 354.745 1327.95 401.116 1338.16 445.245C1342.55 464.093 1353.36 482.482 1370.73 491.736C1388.16 500.764 1416.92 507.26 1432.89 491.931C1444.3 480.949 1447.99 460.876 1451.18 446.239C1454.38 431.602 1456.28 416.377 1457.16 401.361C1457.94 384.868 1406.35 376.854 1405.67 390.228C1404.53 414.372 1400.6 438.979 1392.33 461.698C1390.49 466.772 1388.03 471.438 1384.5 475.576C1383.86 476.132 1383.23 476.689 1382.6 477.245C1401.66 483.805 1407.23 482.878 1398.81 474.569C1396.43 470.785 1394.4 466.61 1392.6 462.496C1385.5 446.552 1384.51 427.648 1383.78 410.506C1382.15 372.306 1387.62 333.828 1391.33 295.605C1395.81 251.779 1396.35 209.078 1413.89 168.024C1396.71 164.389 1379.53 160.753 1362.41 156.892C1361.32 160.958 1360.29 164.797 1359.2 168.863C1355.67 182.927 1406.92 194.962 1410.91 180.056Z" fill="black"/>
<path d="M1339.57 236.71C1323.7 225.439 1306.59 217.948 1286.96 221.645C1276.26 223.62 1273.01 231.223 1280.19 239.681C1323.46 290.493 1400.53 294.682 1461.81 303.597C1468.54 304.675 1486.49 306.338 1484.88 294.286C1483.48 283.259 1467.38 275.558 1457.82 274.206C1433.6 270.622 1409.37 268.002 1385.46 263.289C1362.9 258.94 1337.36 253.065 1321.96 234.655C1319.65 240.572 1317.5 246.775 1315.19 252.692C1312.32 251.679 1309.44 250.667 1306.62 249.428C1315.99 256.052 1330.63 261.913 1342.06 257.228C1353.3 253.219 1346.46 241.704 1339.57 236.71Z" fill="black"/>
<path d="M208.138 -81.4649C187.254 -36.9508 196.591 14.9348 201.866 62.1011C203.297 74.8304 250.696 89.4674 249.668 79.751C244.541 33.8351 235.564 -15.7758 255.919 -59.2211C260.797 -69.2919 213.016 -91.5358 208.138 -81.4649Z" fill="black"/>
<path d="M145.708 -96.0148C128.121 -75.5512 133.6 -47.2125 135.453 -22.5082C136.223 -10.9244 147.071 -1.72333 156.57 3.48452C160.167 5.4168 180.958 13.6507 180.128 2.29274C178.573 -19.9109 172.384 -46.5033 188.177 -64.7851C198.826 -77.4246 157.338 -109.602 145.708 -96.0148Z" fill="black"/>
<path d="M438.969 132.169C416.093 217.545 393.216 302.92 370.34 388.296C368.887 393.717 382.293 406.024 383.504 401.506C406.38 316.131 429.256 230.755 452.133 145.379C453.299 140.124 440.179 127.652 438.969 132.169Z" fill="black"/>
<path d="M396.995 179.505C386.706 217.901 376.418 256.298 366.13 294.694C364.254 301.696 381.822 309.308 383.456 303.21C393.745 264.814 404.033 226.417 414.321 188.021C415.971 180.958 398.629 173.406 396.995 179.505Z" fill="black"/>
</svg>
