<svg width="158" height="146" viewBox="0 0 158 146" fill="none" xmlns="http://www.w3.org/2000/svg">
<path fill-rule="evenodd" clip-rule="evenodd" d="M151.985 109.861C155.18 106.053 154.684 100.377 150.876 97.1817L56.8123 18.2528C54.9585 16.6973 52.5564 15.9538 50.1481 16.1902L24.2642 18.7306C19.3912 19.2089 15.7946 23.4952 16.1697 28.3772L18.1626 54.309C18.348 56.7218 19.4973 58.9583 21.3511 60.5138L115.415 139.443C119.223 142.638 124.899 142.141 128.094 138.333L151.985 109.861ZM29.5944 40.6015C32.5651 43.0943 36.9969 42.7036 39.493 39.7288C41.989 36.7541 41.6042 32.3219 38.6335 29.8291C35.6627 27.3363 31.231 27.727 28.7349 30.7018C26.2388 33.6765 26.6236 38.1087 29.5944 40.6015Z" fill="#7B31C3"/>
<path d="M67.715 49.5677C67.3858 49.6445 67.0792 49.8588 66.795 50.2105L65.5035 49.1268C65.8098 48.7881 66.148 48.5066 66.5183 48.2822C66.8625 48.1021 67.2537 47.9974 67.6921 47.9681C68.0118 47.9551 68.333 48.0095 68.6556 48.1312C68.9782 48.253 69.3207 48.4659 69.6833 48.7701C70.3565 49.3351 70.752 49.9648 70.8698 50.6593C70.9935 51.3534 70.8095 51.9933 70.3179 52.5792C69.9703 52.9935 69.5539 53.2399 69.0689 53.3183C68.7642 53.366 68.5005 53.3515 68.2778 53.275C68.4041 53.381 68.4943 53.6415 68.5487 54.0567C68.6272 54.6796 68.4287 55.2744 67.9534 55.8408C67.4537 56.4364 66.8065 56.787 66.0119 56.8925C65.2233 56.9974 64.4244 56.7104 63.6152 56.0314C62.6182 55.1949 62.1985 54.2883 62.356 53.3118C62.4427 52.7943 62.7096 52.2461 63.1568 51.6671L64.5163 52.8078C64.28 53.0894 64.1298 53.3605 64.0656 53.6211C63.9487 54.1022 64.112 54.5288 64.5555 54.9009C64.8274 55.129 65.1411 55.2351 65.4966 55.219C65.8581 55.2023 66.1855 55.0192 66.4788 54.6696C66.8672 54.2068 66.9388 53.7401 66.6937 53.2697C66.5534 53.003 66.2535 52.6768 65.7938 52.2912L66.6249 51.3007C67.0803 51.6717 67.4309 51.8915 67.6769 51.9599C68.0985 52.082 68.4831 51.9359 68.8307 51.5216C69.0562 51.2529 69.1602 50.9679 69.1428 50.6665C69.1287 50.3678 68.9792 50.0989 68.6944 49.8599C68.3674 49.5856 68.041 49.4882 67.715 49.5677Z" fill="white"/>
<path d="M73.2249 63.7971L70.1418 61.21L76.147 54.0532L79.2302 56.6403C79.6682 57.0189 79.9938 57.3803 80.2068 57.7246C80.57 58.3106 80.7223 58.9542 80.6637 59.6551C80.6141 60.2203 80.4609 60.7481 80.2038 61.2385C79.9468 61.7289 79.6608 62.1618 79.3457 62.5373C78.5472 63.4889 77.6799 64.1347 76.7438 64.4745C75.479 64.9301 74.306 64.7043 73.2249 63.7971ZM78.8102 59.3989C78.9063 58.8176 78.6145 58.2418 77.9347 57.6714L76.5558 56.5144L72.6365 61.1852L74.0154 62.3423C74.7211 62.9344 75.505 62.9993 76.3674 62.5369C76.84 62.2826 77.2977 61.8916 77.7404 61.364C78.3515 60.6357 78.7081 59.9807 78.8102 59.3989Z" fill="white"/>
<path d="M83.2164 59.9852L84.7022 61.2318L78.6969 68.3886L77.2112 67.142L83.2164 59.9852Z" fill="white"/>
<path d="M90.111 67.9299L86.5229 64.9191L85.1418 66.5651L88.2832 69.201L87.2402 70.444L84.0988 67.8081L81.581 70.8087L80.0952 69.562L86.0924 62.4149L91.1662 66.6724L90.111 67.9299Z" fill="white"/>
<path d="M96.1899 73.0307L92.6018 70.0199L91.2207 71.6659L94.3621 74.3019L93.3191 75.5448L90.1777 72.9089L87.6599 75.9095L86.1742 74.6628L92.1713 67.5157L97.2451 71.7732L96.1899 73.0307Z" fill="white"/>
<path d="M99.8584 80.8168L96.382 77.8997L94.8379 79.7399L98.7998 83.0644L97.7202 84.3511L92.2968 79.8003L98.302 72.6435L103.551 77.0476L102.487 78.3149L98.7001 75.137L97.4249 76.6568L100.901 79.5738L99.8584 80.8168Z" fill="white"/>
<path d="M104.28 85.0729L102.736 83.7773L100.381 86.5837L98.9195 85.3574L104.925 78.2006L108.435 81.1462C108.929 81.5769 109.262 81.9616 109.436 82.3003C109.613 82.6418 109.703 83.0013 109.706 83.379C109.709 83.6906 109.664 83.9945 109.57 84.2907C109.475 84.5868 109.31 84.8757 109.074 85.1573C108.789 85.4972 108.422 85.7602 107.973 85.9464C107.527 86.1294 107.05 86.1232 106.541 85.9278C106.76 86.3375 106.834 86.7225 106.764 87.0825C106.699 87.4421 106.456 87.8727 106.035 88.3745L105.632 88.8551C105.358 89.1821 105.185 89.4147 105.113 89.5529C104.997 89.77 104.973 89.982 105.042 90.1889L104.892 90.3686L103.246 88.9874C103.333 88.7908 103.408 88.6358 103.47 88.5224C103.6 88.2891 103.751 88.0659 103.925 87.8528L104.473 87.1795C104.85 86.7176 105.021 86.3427 104.987 86.0548C104.956 85.7696 104.72 85.4423 104.28 85.0729ZM106.28 84.5335C106.691 84.6474 107.066 84.5037 107.403 84.1023C107.767 83.6686 107.867 83.2564 107.704 82.8658C107.613 82.6458 107.405 82.4 107.081 82.1284L105.343 80.6699L103.73 82.5926L105.424 84.0145C105.761 84.2969 106.046 84.47 106.28 84.5335Z" fill="white"/>
<path d="M113.677 92.4118L110.2 89.4947L108.656 91.3349L112.618 94.6594L111.539 95.9461L106.115 91.3952L112.12 84.2384L117.369 88.6426L116.306 89.9098L112.518 86.732L111.243 88.2517L114.72 91.1688L113.677 92.4118Z" fill="white"/>
<path d="M118.491 101.78L116.996 100.525L118.339 92.9892L114.073 98.0727L112.68 96.9035L118.685 89.7467L120.253 91.0626L118.911 98.4503L123.103 93.4541L124.497 94.6234L118.491 101.78Z" fill="white"/>
<path d="M131.095 100.16L130.032 101.427L127.891 99.6307L122.949 105.52L121.443 104.257L126.385 98.3677L124.234 96.5629L125.298 95.2956L131.095 100.16Z" fill="white"/>
<path d="M57.3034 65.8214L55.7837 64.5462L53.6244 67.1195L52.1386 65.8728L58.1439 58.7161L61.261 61.3316C61.9796 61.9346 62.3977 62.5999 62.5154 63.3274C62.633 64.0549 62.3673 64.8055 61.7181 65.5791C61.0092 66.424 60.2945 66.8419 59.5739 66.833C58.8533 66.824 58.0964 66.4868 57.3034 65.8214ZM59.2533 64.9175C59.5915 64.9089 59.9167 64.7185 60.2291 64.3462C60.5414 63.974 60.6654 63.6257 60.6011 63.3014C60.5399 62.9798 60.333 62.671 59.9801 62.375L58.5867 61.2057L56.8185 63.3129L58.212 64.4822C58.5648 64.7783 58.9119 64.9233 59.2533 64.9175Z" fill="white"/>
<path d="M64.1314 71.1536L62.5874 69.858L60.2325 72.6644L58.7711 71.4381L64.7763 64.2813L68.2867 67.2269C68.7803 67.6576 69.1139 68.0423 69.2875 68.3811C69.4643 68.7225 69.5543 69.082 69.5573 69.4597C69.5606 69.7713 69.5152 70.0752 69.4211 70.3714C69.3271 70.6675 69.1619 70.9564 68.9256 71.238C68.6404 71.5779 68.2735 71.841 67.8249 72.0272C67.379 72.2101 66.9016 72.2039 66.3926 72.0085C66.6114 72.4183 66.6856 72.8032 66.6151 73.1633C66.5506 73.5228 66.3079 73.9535 65.8869 74.4552L65.4835 74.9359C65.2092 75.2628 65.0361 75.4954 64.9642 75.6336C64.8482 75.8507 64.8248 76.0627 64.8939 76.2696L64.7431 76.4493L63.0972 75.0682C63.1849 74.8715 63.2599 74.7165 63.3219 74.6031C63.4515 74.3698 63.6029 74.1466 63.7762 73.9335L64.3247 73.2602C64.7012 72.7983 64.8723 72.4235 64.8381 72.1355C64.8072 71.8503 64.5716 71.523 64.1314 71.1536ZM66.1312 70.6142C66.5431 70.7282 66.9174 70.5844 67.2542 70.1831C67.6181 69.7493 67.7185 69.3371 67.5554 68.9465C67.4642 68.7265 67.2567 68.4807 66.933 68.2091L65.1948 66.7506L63.5814 68.6733L65.276 70.0952C65.6126 70.3777 65.8977 70.5507 66.1312 70.6142Z" fill="white"/>
<path d="M68.9216 80.2947C67.8988 79.4364 67.3507 78.5021 67.2773 77.4918C67.1253 76.2004 67.5884 74.9122 68.6667 73.6271C69.7667 72.3162 70.955 71.6364 72.2314 71.5877C73.2391 71.4845 74.2544 71.8621 75.2773 72.7203C76.3002 73.5786 76.8483 74.5129 76.9217 75.5233C77.0921 76.7861 76.6274 78.0729 75.5274 79.3839C74.4491 80.6689 73.2625 81.3501 71.9675 81.4274C70.9598 81.5305 69.9445 81.153 68.9216 80.2947ZM71.9479 79.5576C72.6609 79.4112 73.3556 78.935 74.0319 78.129C74.7055 77.3263 75.0508 76.5597 75.0679 75.8294C75.091 75.0986 74.8063 74.4846 74.2139 73.9876C73.6216 73.4905 72.9657 73.3125 72.2462 73.4534C71.5267 73.5943 70.8288 74.0678 70.1525 74.8738C69.4762 75.6798 69.1311 76.4493 69.1172 77.1823C69.1034 77.9154 69.3926 78.5304 69.985 79.0275C70.5774 79.5245 71.2317 79.7012 71.9479 79.5576Z" fill="white"/>
<path d="M78.0212 83.9255L82.2216 78.9197L83.7171 80.1745L79.537 85.1561C79.0264 85.7646 78.5165 86.1587 78.0073 86.3382C77.1461 86.6415 76.251 86.4034 75.322 85.6238C74.393 84.8443 73.9736 84.0787 74.0638 83.327C74.1567 82.572 74.5562 81.7738 75.2624 80.9322L75.4009 80.7671L76.8138 81.9527L76.6753 82.1177C76.2238 82.6821 75.9564 83.1224 75.8731 83.4386C75.7957 83.7543 75.9351 84.0616 76.2912 84.3603C76.644 84.6564 76.9802 84.7289 77.3 84.578C77.4902 84.4894 77.7306 84.2719 78.0212 83.9255Z" fill="white"/>
<path d="M86.8029 89.6312L83.3264 86.7141L81.7824 88.5543L85.7443 91.8788L84.6647 93.1654L79.2412 88.6146L85.2465 81.4578L90.4952 85.862L89.4318 87.1292L85.6446 83.9514L84.3694 85.4711L87.8459 88.3882L86.8029 89.6312Z" fill="white"/>
<path d="M91.3277 97.8462C90.3835 97.8869 89.4954 97.5581 88.6635 96.8601C87.6342 95.9964 87.102 94.9872 87.067 93.8326C87.0347 92.6747 87.5033 91.5179 88.473 90.3624C89.5214 89.1129 90.6644 88.431 91.9021 88.3168C92.9791 88.2165 93.9675 88.544 94.8674 89.299C96.0715 90.3094 96.6206 91.4431 96.5146 92.7001C96.45 93.4016 96.2416 93.9851 95.8895 94.4509L94.394 93.196C94.5848 92.7714 94.6775 92.4079 94.672 92.1055C94.6609 91.5666 94.3882 91.073 93.8541 90.6249C93.3103 90.1686 92.6968 90.0288 92.0134 90.2056C91.3327 90.3791 90.6556 90.8672 89.982 91.67C89.3084 92.4727 88.9683 93.2133 88.9617 93.8917C88.961 94.5696 89.2164 95.1231 89.7278 95.5523C90.2522 95.9923 90.7959 96.1562 91.359 96.0439C91.6659 95.9871 92.0244 95.8163 92.4344 95.5315L93.9152 96.7741C93.1312 97.4455 92.2687 97.8029 91.3277 97.8462Z" fill="white"/>
<path d="M104.221 97.3795L103.158 98.6468L101.017 96.8501L96.0748 102.74L94.5696 101.477L99.5115 95.5871L97.3606 93.7823L98.424 92.515L104.221 97.3795Z" fill="white"/>
<path d="M102.56 106.419C102.913 106.715 103.232 106.917 103.517 107.024C104.06 107.225 104.501 107.124 104.84 106.719C105.039 106.483 105.089 106.213 104.99 105.91C104.889 105.61 104.657 105.225 104.295 104.756L103.68 103.95C103.077 103.157 102.716 102.543 102.597 102.106C102.392 101.371 102.584 100.653 103.173 99.9502C103.711 99.3093 104.391 98.9723 105.213 98.9394C106.034 98.9065 106.897 99.2689 107.8 100.027C108.554 100.66 109.028 101.399 109.222 102.246C109.422 103.093 109.216 103.907 108.604 104.689L107.167 103.483C107.502 103.031 107.571 102.568 107.373 102.093C107.241 101.778 107.001 101.475 106.655 101.184C106.27 100.861 105.897 100.681 105.537 100.643C105.177 100.606 104.88 100.726 104.646 101.004C104.432 101.26 104.385 101.546 104.505 101.863C104.581 102.069 104.808 102.428 105.189 102.941L106.174 104.272C106.606 104.855 106.868 105.37 106.962 105.818C107.106 106.513 106.911 107.18 106.376 107.817C105.827 108.471 105.12 108.805 104.255 108.817C103.395 108.83 102.509 108.453 101.596 107.687C100.664 106.905 100.108 106.077 99.9301 105.205C99.7545 104.33 99.9791 103.52 100.604 102.775L102.031 103.973C101.802 104.338 101.686 104.657 101.683 104.93C101.679 105.429 101.971 105.925 102.56 106.419Z" fill="white"/>
</svg>
