<svg width="413" height="150" viewBox="0 0 413 150" fill="none" xmlns="http://www.w3.org/2000/svg">
<g filter="url(#filter0_d_1511_10)">
<path fill-rule="evenodd" clip-rule="evenodd" d="M151.985 109.861C155.18 106.053 154.684 100.377 150.876 97.1817L56.8123 18.2528C54.9585 16.6973 52.5564 15.9538 50.1481 16.1902L24.2642 18.7306C19.3912 19.2089 15.7946 23.4952 16.1697 28.3772L18.1626 54.309C18.348 56.7218 19.4973 58.9583 21.351 60.5138L115.415 139.443C119.223 142.638 124.899 142.141 128.094 138.333L151.985 109.861ZM29.5944 40.6015C32.5651 43.0943 36.9969 42.7036 39.493 39.7288C41.989 36.7541 41.6042 32.3219 38.6335 29.8291C35.6627 27.3363 31.231 27.727 28.7349 30.7018C26.2388 33.6765 26.6236 38.1088 29.5944 40.6015Z" fill="#7B31C3"/>
<path d="M67.715 49.5677C67.3858 49.6445 67.0792 49.8588 66.795 50.2105L65.5035 49.1268C65.8098 48.7881 66.148 48.5066 66.5183 48.2822C66.8625 48.1021 67.2537 47.9974 67.6921 47.9681C68.0118 47.9551 68.333 48.0095 68.6556 48.1312C68.9782 48.253 69.3207 48.4659 69.6833 48.7701C70.3565 49.3351 70.752 49.9648 70.8698 50.6593C70.9935 51.3534 70.8095 51.9933 70.3179 52.5792C69.9703 52.9935 69.5539 53.2399 69.0689 53.3183C68.7642 53.366 68.5005 53.3515 68.2778 53.275C68.4041 53.381 68.4943 53.6415 68.5487 54.0567C68.6272 54.6796 68.4287 55.2744 67.9534 55.8408C67.4537 56.4364 66.8065 56.787 66.0119 56.8925C65.2233 56.9974 64.4244 56.7104 63.6152 56.0314C62.6182 55.1949 62.1985 54.2883 62.356 53.3118C62.4427 52.7943 62.7096 52.2461 63.1568 51.6671L64.5163 52.8078C64.28 53.0894 64.1298 53.3605 64.0656 53.6211C63.9487 54.1022 64.112 54.5288 64.5555 54.9009C64.8274 55.129 65.1411 55.2351 65.4966 55.219C65.8581 55.2023 66.1855 55.0192 66.4788 54.6696C66.8672 54.2068 66.9388 53.7401 66.6937 53.2697C66.5534 53.003 66.2535 52.6768 65.7938 52.2912L66.6249 51.3007C67.0803 51.6717 67.4309 51.8915 67.6769 51.9599C68.0985 52.082 68.4831 51.9359 68.8307 51.5216C69.0562 51.2529 69.1602 50.9679 69.1428 50.6665C69.1287 50.3678 68.9792 50.0989 68.6944 49.8599C68.3674 49.5856 68.041 49.4882 67.715 49.5677Z" fill="white"/>
<path d="M73.2249 63.7971L70.1418 61.21L76.147 54.0532L79.2302 56.6403C79.6682 57.0189 79.9938 57.3803 80.2068 57.7246C80.57 58.3106 80.7223 58.9542 80.6637 59.6551C80.6141 60.2203 80.4609 60.7481 80.2038 61.2385C79.9468 61.7289 79.6608 62.1618 79.3457 62.5373C78.5472 63.4889 77.6799 64.1347 76.7438 64.4745C75.479 64.9301 74.306 64.7043 73.2249 63.7971ZM78.8102 59.3989C78.9063 58.8176 78.6145 58.2418 77.9347 57.6714L76.5558 56.5144L72.6365 61.1852L74.0154 62.3423C74.7211 62.9344 75.505 62.9993 76.3674 62.5369C76.84 62.2826 77.2977 61.8916 77.7404 61.364C78.3515 60.6357 78.7081 59.9807 78.8102 59.3989Z" fill="white"/>
<path d="M83.2164 59.9852L84.7022 61.2318L78.6969 68.3886L77.2112 67.142L83.2164 59.9852Z" fill="white"/>
<path d="M90.111 67.9299L86.5229 64.9191L85.1418 66.5651L88.2832 69.201L87.2402 70.444L84.0988 67.8081L81.581 70.8087L80.0952 69.562L86.0924 62.4149L91.1662 66.6724L90.111 67.9299Z" fill="white"/>
<path d="M96.1899 73.0307L92.6018 70.0199L91.2207 71.6659L94.3621 74.3019L93.3191 75.5448L90.1777 72.9089L87.6599 75.9095L86.1742 74.6628L92.1713 67.5157L97.2451 71.7732L96.1899 73.0307Z" fill="white"/>
<path d="M99.8584 80.8168L96.382 77.8997L94.8379 79.7399L98.7998 83.0644L97.7202 84.3511L92.2968 79.8003L98.302 72.6435L103.551 77.0476L102.487 78.3149L98.7001 75.137L97.4249 76.6568L100.901 79.5738L99.8584 80.8168Z" fill="white"/>
<path d="M104.28 85.0729L102.736 83.7773L100.381 86.5837L98.9195 85.3574L104.925 78.2006L108.435 81.1462C108.929 81.5769 109.262 81.9616 109.436 82.3003C109.613 82.6418 109.703 83.0013 109.706 83.379C109.709 83.6906 109.664 83.9945 109.57 84.2907C109.475 84.5868 109.31 84.8757 109.074 85.1573C108.789 85.4972 108.422 85.7602 107.973 85.9464C107.527 86.1294 107.05 86.1232 106.541 85.9278C106.76 86.3375 106.834 86.7225 106.764 87.0825C106.699 87.4421 106.456 87.8727 106.035 88.3745L105.632 88.8551C105.358 89.1821 105.185 89.4147 105.113 89.5529C104.997 89.77 104.973 89.982 105.042 90.1889L104.892 90.3686L103.246 88.9874C103.333 88.7908 103.408 88.6358 103.47 88.5224C103.6 88.2891 103.751 88.0659 103.925 87.8528L104.473 87.1795C104.85 86.7176 105.021 86.3427 104.987 86.0548C104.956 85.7696 104.72 85.4423 104.28 85.0729ZM106.28 84.5335C106.691 84.6474 107.066 84.5037 107.403 84.1023C107.767 83.6686 107.867 83.2564 107.704 82.8658C107.613 82.6458 107.405 82.4 107.081 82.1284L105.343 80.6699L103.73 82.5926L105.424 84.0145C105.761 84.2969 106.046 84.4699 106.28 84.5335Z" fill="white"/>
<path d="M113.677 92.4118L110.2 89.4947L108.656 91.3349L112.618 94.6594L111.539 95.9461L106.115 91.3952L112.12 84.2384L117.369 88.6426L116.306 89.9098L112.518 86.732L111.243 88.2517L114.72 91.1688L113.677 92.4118Z" fill="white"/>
<path d="M118.491 101.78L116.996 100.525L118.339 92.9892L114.073 98.0727L112.68 96.9035L118.685 89.7467L120.253 91.0626L118.911 98.4503L123.103 93.4541L124.497 94.6234L118.491 101.78Z" fill="white"/>
<path d="M131.095 100.16L130.032 101.427L127.891 99.6307L122.949 105.52L121.443 104.257L126.385 98.3677L124.234 96.5629L125.298 95.2956L131.095 100.16Z" fill="white"/>
<path d="M57.3034 65.8214L55.7837 64.5462L53.6244 67.1195L52.1386 65.8728L58.1439 58.7161L61.261 61.3316C61.9796 61.9346 62.3977 62.5999 62.5154 63.3274C62.633 64.0549 62.3673 64.8055 61.7181 65.5791C61.0092 66.424 60.2945 66.8419 59.5739 66.833C58.8533 66.824 58.0964 66.4868 57.3034 65.8214ZM59.2533 64.9175C59.5915 64.9089 59.9167 64.7185 60.2291 64.3462C60.5414 63.974 60.6654 63.6257 60.6011 63.3014C60.5399 62.9798 60.333 62.671 59.9801 62.375L58.5867 61.2057L56.8185 63.3129L58.212 64.4822C58.5648 64.7783 58.9119 64.9233 59.2533 64.9175Z" fill="white"/>
<path d="M64.1314 71.1536L62.5874 69.858L60.2325 72.6644L58.7711 71.4381L64.7763 64.2813L68.2867 67.2269C68.7803 67.6576 69.1139 68.0423 69.2875 68.3811C69.4643 68.7225 69.5543 69.082 69.5573 69.4597C69.5606 69.7713 69.5152 70.0752 69.4211 70.3714C69.3271 70.6675 69.1619 70.9564 68.9256 71.238C68.6404 71.5779 68.2735 71.841 67.8249 72.0272C67.379 72.2101 66.9016 72.2039 66.3926 72.0085C66.6114 72.4183 66.6856 72.8032 66.6151 73.1633C66.5506 73.5228 66.3079 73.9535 65.8869 74.4552L65.4835 74.9359C65.2092 75.2628 65.0361 75.4954 64.9642 75.6336C64.8482 75.8507 64.8248 76.0627 64.8939 76.2696L64.7431 76.4493L63.0972 75.0682C63.1849 74.8715 63.2599 74.7165 63.3219 74.6031C63.4515 74.3698 63.6029 74.1466 63.7762 73.9335L64.3247 73.2602C64.7012 72.7983 64.8723 72.4235 64.8381 72.1355C64.8072 71.8503 64.5716 71.523 64.1314 71.1536ZM66.1312 70.6142C66.5431 70.7282 66.9174 70.5844 67.2542 70.1831C67.6181 69.7493 67.7185 69.3371 67.5554 68.9465C67.4642 68.7265 67.2567 68.4807 66.933 68.2091L65.1948 66.7506L63.5814 68.6733L65.276 70.0952C65.6126 70.3777 65.8977 70.5507 66.1312 70.6142Z" fill="white"/>
<path d="M68.9216 80.2947C67.8988 79.4364 67.3507 78.5021 67.2773 77.4918C67.1253 76.2004 67.5884 74.9122 68.6667 73.6271C69.7667 72.3162 70.955 71.6364 72.2314 71.5877C73.2391 71.4845 74.2544 71.8621 75.2773 72.7203C76.3002 73.5786 76.8483 74.5129 76.9217 75.5233C77.0921 76.7861 76.6274 78.0729 75.5274 79.3839C74.4491 80.6689 73.2625 81.3501 71.9675 81.4274C70.9598 81.5305 69.9445 81.153 68.9216 80.2947ZM71.9479 79.5576C72.6609 79.4112 73.3556 78.935 74.0319 78.129C74.7055 77.3263 75.0508 76.5597 75.0679 75.8294C75.091 75.0986 74.8063 74.4846 74.2139 73.9876C73.6216 73.4905 72.9657 73.3125 72.2462 73.4534C71.5267 73.5943 70.8288 74.0678 70.1525 74.8738C69.4762 75.6798 69.1311 76.4493 69.1172 77.1823C69.1034 77.9154 69.3926 78.5304 69.985 79.0275C70.5774 79.5245 71.2317 79.7012 71.9479 79.5576Z" fill="white"/>
<path d="M78.0212 83.9255L82.2216 78.9197L83.7171 80.1745L79.537 85.1561C79.0264 85.7646 78.5165 86.1587 78.0073 86.3382C77.1461 86.6415 76.251 86.4034 75.322 85.6238C74.393 84.8443 73.9736 84.0787 74.0638 83.327C74.1567 82.572 74.5562 81.7738 75.2624 80.9322L75.4009 80.7671L76.8138 81.9527L76.6753 82.1177C76.2238 82.6821 75.9564 83.1224 75.8731 83.4386C75.7957 83.7543 75.9351 84.0616 76.2912 84.3603C76.644 84.6564 76.9802 84.7289 77.3 84.578C77.4902 84.4894 77.7306 84.2719 78.0212 83.9255Z" fill="white"/>
<path d="M86.8029 89.6312L83.3264 86.7141L81.7823 88.5543L85.7443 91.8788L84.6647 93.1654L79.2412 88.6146L85.2465 81.4578L90.4952 85.862L89.4318 87.1292L85.6446 83.9514L84.3694 85.4711L87.8459 88.3882L86.8029 89.6312Z" fill="white"/>
<path d="M91.3277 97.8462C90.3835 97.8869 89.4954 97.5581 88.6635 96.8601C87.6342 95.9964 87.102 94.9872 87.067 93.8326C87.0347 92.6747 87.5033 91.5179 88.473 90.3624C89.5214 89.1129 90.6644 88.431 91.9021 88.3168C92.9791 88.2165 93.9675 88.544 94.8674 89.299C96.0715 90.3094 96.6206 91.4431 96.5146 92.7001C96.45 93.4016 96.2416 93.9851 95.8895 94.4509L94.394 93.196C94.5848 92.7714 94.6775 92.4079 94.672 92.1055C94.6609 91.5666 94.3882 91.073 93.8541 90.6249C93.3103 90.1686 92.6968 90.0288 92.0134 90.2056C91.3327 90.3791 90.6556 90.8672 89.982 91.67C89.3084 92.4727 88.9683 93.2133 88.9617 93.8917C88.961 94.5696 89.2164 95.1232 89.7278 95.5523C90.2522 95.9923 90.7959 96.1562 91.359 96.0439C91.6659 95.9871 92.0244 95.8163 92.4344 95.5315L93.9152 96.7741C93.1312 97.4455 92.2687 97.8029 91.3277 97.8462Z" fill="white"/>
<path d="M104.221 97.3795L103.158 98.6468L101.017 96.8501L96.0748 102.74L94.5696 101.477L99.5115 95.5871L97.3606 93.7823L98.4239 92.515L104.221 97.3795Z" fill="white"/>
<path d="M102.56 106.419C102.913 106.715 103.232 106.917 103.517 107.024C104.06 107.225 104.501 107.124 104.84 106.719C105.039 106.483 105.089 106.213 104.99 105.91C104.889 105.61 104.657 105.225 104.295 104.756L103.68 103.95C103.077 103.157 102.716 102.543 102.597 102.106C102.392 101.371 102.584 100.653 103.173 99.9502C103.711 99.3093 104.391 98.9723 105.213 98.9394C106.034 98.9065 106.897 99.2689 107.8 100.027C108.554 100.66 109.028 101.399 109.222 102.246C109.422 103.093 109.216 103.907 108.604 104.689L107.167 103.483C107.502 103.031 107.571 102.568 107.373 102.093C107.241 101.778 107.001 101.475 106.655 101.184C106.27 100.861 105.897 100.681 105.537 100.643C105.177 100.606 104.88 100.726 104.646 101.004C104.432 101.26 104.385 101.546 104.505 101.863C104.581 102.069 104.808 102.428 105.189 102.941L106.174 104.272C106.606 104.855 106.868 105.37 106.962 105.818C107.106 106.513 106.911 107.18 106.376 107.817C105.827 108.471 105.12 108.805 104.255 108.817C103.395 108.83 102.509 108.453 101.596 107.687C100.664 106.905 100.108 106.077 99.9301 105.205C99.7545 104.33 99.9791 103.52 100.604 102.775L102.031 103.973C101.802 104.338 101.686 104.657 101.683 104.93C101.679 105.429 101.971 105.925 102.56 106.419Z" fill="white"/>
<path fill-rule="evenodd" clip-rule="evenodd" d="M279.239 109.861C282.434 106.053 281.937 100.377 278.129 97.1817L184.066 18.2528C182.212 16.6973 179.81 15.9538 177.401 16.1902L151.518 18.7306C146.645 19.2089 143.048 23.4952 143.423 28.3772L145.416 54.309C145.601 56.7218 146.751 58.9583 148.604 60.5138L242.668 139.443C246.476 142.638 252.153 142.141 255.348 138.333L279.239 109.861ZM156.848 40.6013C159.819 43.094 164.25 42.7033 166.746 39.7286C169.242 36.7539 168.858 32.3216 165.887 29.8288C162.916 27.3361 158.484 27.7268 155.988 30.7015C153.492 33.6762 153.877 38.1085 156.848 40.6013Z" fill="#7B31C3"/>
<path d="M192.188 47.2863C192.189 46.9503 192.036 46.6533 191.728 46.3953C191.307 46.0422 190.889 45.9588 190.473 46.1451C190.234 46.253 189.94 46.4977 189.593 46.879L188.248 45.7505C188.773 45.1706 189.288 44.7777 189.791 44.5717C190.75 44.1789 191.7 44.3777 192.642 45.1681C193.386 45.7928 193.805 46.497 193.898 47.2807C193.993 48.0612 193.755 48.7913 193.185 49.471C192.748 49.9922 192.204 50.3247 191.554 50.4686C191.124 50.5661 190.538 50.5844 189.795 50.5235L188.911 50.4523C188.358 50.4077 187.971 50.3861 187.749 50.3875C187.531 50.3916 187.317 50.4298 187.107 50.5022L190.18 53.0811L189.158 54.2998L184.337 50.2542C184.773 49.7601 185.269 49.3898 185.823 49.1434C186.414 48.8397 187.297 48.7339 188.472 48.8261C189.493 48.9048 190.18 48.9241 190.533 48.8842C191.079 48.8185 191.506 48.6027 191.813 48.2369C192.063 47.9391 192.188 47.6222 192.188 47.2863Z" fill="white"/>
<path d="M194.455 58.7447L193.062 57.5754L199.067 50.4186L201.242 52.2438L197.821 58.963L203.835 54.4194L205.986 56.2242L199.98 63.381L198.587 62.2117L202.649 57.3709C202.766 57.2318 202.93 57.0389 203.143 56.7924C203.358 56.5426 203.522 56.3498 203.636 56.2138L197.242 61.0832L195.79 59.865L199.485 52.7304C199.371 52.8664 199.21 53.0619 199.001 53.3171C198.795 53.5691 198.634 53.7647 198.517 53.9039L194.455 58.7447Z" fill="white"/>
<path d="M204.368 67.4016C203.345 66.5433 202.797 65.609 202.723 64.5987C202.571 63.3073 203.035 62.0191 204.113 60.734C205.213 59.4231 206.401 58.7433 207.678 58.6946C208.685 58.5914 209.701 58.969 210.723 59.8273C211.746 60.6855 212.294 61.6198 212.368 62.6302C212.538 63.893 212.073 65.1798 210.973 66.4908C209.895 67.7758 208.709 68.457 207.414 68.5343C206.406 68.6375 205.391 68.2599 204.368 67.4016ZM207.394 66.6645C208.107 66.5181 208.802 66.0419 209.478 65.2359C210.152 64.4332 210.497 63.6666 210.514 62.9363C210.537 62.2055 210.252 61.5915 209.66 61.0945C209.068 60.5975 208.412 60.4194 207.692 60.5603C206.973 60.7013 206.275 61.1747 205.599 61.9807C204.922 62.7867 204.577 63.5562 204.563 64.2892C204.55 65.0223 204.839 65.6373 205.431 66.1344C206.023 66.6314 206.678 66.8081 207.394 66.6645Z" fill="white"/>
<path d="M212.376 73.7823L209.133 71.0607L215.138 63.9039L218.615 66.821C219.481 67.57 219.889 68.3456 219.839 69.1478C219.804 69.6367 219.609 70.0932 219.253 70.5173C218.886 70.9543 218.481 71.2131 218.039 71.2938C217.791 71.3395 217.495 71.3234 217.153 71.2454C217.407 71.685 217.506 72.1263 217.448 72.5692C217.394 73.0148 217.195 73.4432 216.85 73.8543C216.494 74.2783 216.068 74.569 215.572 74.7264C215.249 74.8356 214.921 74.8808 214.59 74.8618C214.213 74.8438 213.841 74.7354 213.472 74.5366C213.107 74.3406 212.742 74.0892 212.376 73.7823ZM214.986 70.6026L213.204 69.1074L211.603 71.0156L213.361 72.4904C213.675 72.7539 213.955 72.9168 214.2 72.9794C214.648 73.0902 215.056 72.9255 215.425 72.4852C215.738 72.113 215.799 71.7283 215.608 71.331C215.502 71.1094 215.294 70.8666 214.986 70.6026ZM216.874 69.8616C217.166 69.908 217.438 69.7807 217.691 69.4797C217.971 69.1463 218.026 68.8176 217.857 68.4935C217.696 68.2316 217.442 67.9554 217.096 67.6647L215.523 66.3447L214.199 67.9227L215.956 69.3975C216.27 69.661 216.576 69.8157 216.874 69.8616Z" fill="white"/>
<path d="M222.183 69.8155L223.669 71.0622L217.664 78.219L216.178 76.9723L222.183 69.8155Z" fill="white"/>
<path d="M225.067 72.2355L226.563 73.4904L221.637 79.3605L225.182 82.3346L224.102 83.6213L219.062 79.3923L225.067 72.2355Z" fill="white"/>
<path d="M232.746 85.5464L229.27 82.6293L227.726 84.4695L231.688 87.7939L230.608 89.0806L225.185 84.5298L231.19 77.373L236.439 81.7772L235.375 83.0444L231.588 79.8666L230.313 81.3863L233.789 84.3034L232.746 85.5464Z" fill="white"/>
<path d="M239.597 94.1158L236.96 91.9036L235.23 92.9592L233.667 91.6473L242.226 86.6335L243.916 88.0513L240.445 97.3348L238.823 95.974L239.597 94.1158ZM240.214 92.5322L241.683 88.9665L238.398 91.0085L240.214 92.5322Z" fill="white"/>
<path d="M246.557 98.0778L245.037 96.8026L242.878 99.3759L241.392 98.1293L247.397 90.9725L250.514 93.5881C251.233 94.191 251.651 94.8563 251.769 95.5838C251.886 96.3113 251.62 97.0619 250.971 97.8355C250.262 98.6804 249.548 99.0983 248.827 99.0894C248.106 99.0804 247.35 98.7432 246.557 98.0778ZM248.507 97.1739C248.845 97.1653 249.17 96.9749 249.482 96.6026C249.795 96.2304 249.919 95.8821 249.854 95.5578C249.793 95.2363 249.586 94.9274 249.233 94.6314L247.84 93.4621L246.072 95.5693L247.465 96.7386C247.818 97.0347 248.165 97.1798 248.507 97.1739Z" fill="white"/>
<path d="M253.189 103.643L251.669 102.368L249.51 104.941L248.024 103.695L254.03 96.5377L257.147 99.1533C257.865 99.7563 258.283 100.422 258.401 101.149C258.519 101.877 258.253 102.627 257.604 103.401C256.895 104.246 256.18 104.664 255.459 104.655C254.739 104.646 253.982 104.309 253.189 103.643ZM255.139 102.739C255.477 102.731 255.802 102.54 256.115 102.168C256.427 101.796 256.551 101.447 256.487 101.123C256.426 100.802 256.219 100.493 255.866 100.197L254.472 99.0274L252.704 101.135L254.098 102.304C254.45 102.6 254.798 102.745 255.139 102.739Z" fill="white"/>
<path d="M258.088 110.377C258.441 110.673 258.76 110.874 259.045 110.981C259.588 111.183 260.029 111.081 260.368 110.677C260.567 110.44 260.616 110.171 260.518 109.867C260.417 109.567 260.185 109.183 259.823 108.713L259.208 107.908C258.605 107.115 258.244 106.5 258.125 106.064C257.919 105.329 258.111 104.61 258.701 103.908C259.239 103.267 259.918 102.93 260.74 102.897C261.562 102.864 262.425 103.226 263.328 103.984C264.082 104.617 264.556 105.357 264.75 106.204C264.95 107.05 264.744 107.864 264.132 108.647L262.695 107.441C263.03 106.989 263.099 106.525 262.901 106.051C262.769 105.735 262.529 105.432 262.183 105.142C261.798 104.818 261.425 104.638 261.065 104.601C260.705 104.563 260.408 104.684 260.174 104.962C259.96 105.218 259.913 105.504 260.033 105.82C260.108 106.026 260.336 106.386 260.717 106.899L261.702 108.23C262.134 108.813 262.396 109.328 262.489 109.776C262.634 110.471 262.439 111.137 261.904 111.775C261.355 112.429 260.648 112.762 259.783 112.775C258.923 112.787 258.037 112.41 257.124 111.644C256.192 110.862 255.636 110.035 255.458 109.163C255.282 108.287 255.507 107.477 256.132 106.733L257.559 107.931C257.33 108.296 257.214 108.615 257.211 108.888C257.207 109.386 257.499 109.882 258.088 110.377Z" fill="white"/>
<path d="M181.671 63.3603L180.763 64.443L179.966 63.7749L178.695 65.2897L177.34 64.153L178.612 62.6382L175.825 60.2996L176.839 59.0906L183.012 56.9894L184.566 58.2932L180.875 62.6921L181.671 63.3603ZM177.758 60.0765L179.52 61.5554L182.071 58.516L177.758 60.0765Z" fill="white"/>
<path d="M196.319 67.8823L197.839 69.1575L189.819 74.6236L188.391 73.4258L191.039 68.5152L191.948 66.9196L190.534 68.0915L186.158 71.5517L184.769 70.3865L188.745 61.5267L190.333 62.8589L187.841 67.7513L187.087 69.0634L188.233 68.1219L192.498 64.676L194.076 66.0001L191.487 70.811L190.748 72.1353L191.888 71.2213L196.319 67.8823Z" fill="white"/>
<path d="M200.347 78.1294L196.871 75.2123L195.326 77.0525L199.288 80.377L198.209 81.6637L192.785 77.1129L198.791 69.9561L204.039 74.3602L202.976 75.6274L199.189 72.4496L197.914 73.9693L201.39 76.8864L200.347 78.1294Z" fill="white"/>
<path d="M202.642 85.3833L199.398 82.6618L205.404 75.505L208.88 78.4221C209.746 79.1711 210.155 79.9467 210.105 80.7488C210.07 81.2378 209.874 81.6943 209.518 82.1183C209.152 82.5553 208.747 82.8142 208.304 82.8949C208.056 82.9406 207.761 82.9245 207.418 82.8465C207.673 83.2861 207.771 83.7274 207.714 84.1703C207.66 84.6159 207.46 85.0442 207.115 85.4553C206.76 85.8794 206.334 86.1701 205.838 86.3274C205.514 86.4367 205.187 86.4819 204.855 86.4629C204.479 86.4448 204.106 86.3364 203.738 86.1377C203.373 85.9417 203.008 85.6902 202.642 85.3833ZM205.252 82.2037L203.47 80.7085L201.869 82.6166L203.626 84.0915C203.94 84.3549 204.22 84.5179 204.466 84.5804C204.913 84.6912 205.322 84.5265 205.691 84.0863C206.003 83.7141 206.064 83.3293 205.873 82.9321C205.767 82.7105 205.56 82.4677 205.252 82.2037ZM207.14 81.4627C207.432 81.5091 207.704 81.3818 207.956 81.0808C208.236 80.7474 208.291 80.4186 208.122 80.0945C207.961 79.8327 207.708 79.5564 207.361 79.2658L205.788 77.9458L204.464 79.5238L206.222 80.9986C206.536 81.2621 206.842 81.4168 207.14 81.4627Z" fill="white"/>
<path d="M210.025 89.8166C210.378 90.1127 210.697 90.3142 210.983 90.4212C211.525 90.6227 211.966 90.5211 212.306 90.1165C212.504 89.8802 212.554 89.6104 212.455 89.3071C212.354 89.007 212.122 88.6224 211.76 88.1532L211.146 87.3477C210.542 86.5547 210.181 85.9399 210.062 85.5035C209.857 84.7686 210.049 84.05 210.638 83.3476C211.176 82.7066 211.856 82.3697 212.678 82.3368C213.5 82.3039 214.362 82.6663 215.265 83.4241C216.019 84.057 216.494 84.7968 216.688 85.6436C216.888 86.4899 216.681 87.3043 216.069 88.0867L214.632 86.8807C214.967 86.4285 215.036 85.9651 214.839 85.4905C214.706 85.1751 214.467 84.8722 214.12 84.5815C213.735 84.2583 213.362 84.078 213.002 84.0405C212.642 84.003 212.345 84.1235 212.112 84.4019C211.897 84.6576 211.85 84.9436 211.971 85.26C212.046 85.4664 212.274 85.8258 212.654 86.3384L213.639 87.6694C214.071 88.2525 214.334 88.7679 214.427 89.2156C214.572 89.9108 214.376 90.5772 213.841 91.2149C213.293 91.8687 212.586 92.202 211.72 92.2148C210.86 92.227 209.974 91.8501 209.061 91.0842C208.129 90.302 207.574 89.4748 207.395 88.6026C207.22 87.7271 207.444 86.9172 208.069 86.1727L209.496 87.3705C209.267 87.7355 209.151 88.0545 209.148 88.3277C209.144 88.826 209.436 89.3223 210.025 89.8166Z" fill="white"/>
<path d="M219.081 86.9818L220.567 88.2285L214.562 95.3853L213.076 94.1386L219.081 86.9818Z" fill="white"/>
<path d="M227.165 93.7653L226.102 95.0325L223.961 93.2358L219.019 99.1254L217.514 97.8624L222.456 91.9728L220.305 90.168L221.368 88.9008L227.165 93.7653Z" fill="white"/>
<path d="M229.644 102.713L226.168 99.7956L224.624 101.636L228.586 104.96L227.506 106.247L222.083 101.696L228.088 94.5393L233.337 98.9435L232.273 100.211L228.486 97.0329L227.211 98.5526L230.687 101.47L229.644 102.713Z" fill="white"/>
<path d="M232.137 108.37C232.49 108.666 232.809 108.868 233.094 108.975C233.636 109.176 234.077 109.075 234.417 108.67C234.615 108.434 234.665 108.164 234.567 107.861C234.465 107.561 234.234 107.176 233.872 106.707L233.257 105.901C232.654 105.108 232.292 104.494 232.173 104.057C231.968 103.322 232.16 102.604 232.749 101.901C233.287 101.26 233.967 100.923 234.789 100.89C235.611 100.857 236.473 101.22 237.377 101.978C238.131 102.611 238.605 103.35 238.799 104.197C238.999 105.043 238.793 105.858 238.18 106.64L236.743 105.434C237.079 104.982 237.147 104.519 236.95 104.044C236.817 103.729 236.578 103.426 236.232 103.135C235.846 102.812 235.474 102.632 235.114 102.594C234.753 102.557 234.456 102.677 234.223 102.955C234.008 103.211 233.961 103.497 234.082 103.814C234.157 104.02 234.385 104.379 234.766 104.892L235.75 106.223C236.182 106.806 236.445 107.321 236.538 107.769C236.683 108.464 236.488 109.131 235.953 109.768C235.404 110.422 234.697 110.756 233.831 110.768C232.971 110.781 232.085 110.404 231.172 109.638C230.24 108.856 229.685 108.028 229.507 107.156C229.331 106.281 229.556 105.471 230.18 104.726L231.608 105.924C231.379 106.289 231.263 106.608 231.26 106.881C231.255 107.38 231.548 107.876 232.137 108.37Z" fill="white"/>
<path fill-rule="evenodd" clip-rule="evenodd" d="M406.491 109.861C409.686 106.053 409.189 100.377 405.381 97.1817L311.318 18.2528C309.464 16.6973 307.062 15.9538 304.653 16.1902L278.77 18.7306C273.897 19.2089 270.3 23.4952 270.675 28.3772L272.668 54.309C272.853 56.7218 274.003 58.9583 275.856 60.5138L369.92 139.443C373.728 142.638 379.405 142.141 382.6 138.333L406.491 109.861ZM284.1 40.6013C287.07 43.094 291.502 42.7033 293.998 39.7286C296.494 36.7539 296.11 32.3216 293.139 29.8288C290.168 27.3361 285.736 27.7268 283.24 30.7015C280.744 33.6762 281.129 38.1085 284.1 40.6013Z" fill="#7B31C3"/>
<path d="M305.248 53.0556C305.601 53.3517 305.92 53.5532 306.206 53.6602C306.748 53.8617 307.189 53.7601 307.529 53.3555C307.727 53.1192 307.777 52.8494 307.678 52.5461C307.577 52.246 307.345 51.8614 306.984 51.3922L306.369 50.5867C305.765 49.7937 305.404 49.1789 305.285 48.7425C305.08 48.0076 305.272 47.289 305.861 46.5866C306.399 45.9457 307.079 45.6087 307.901 45.5758C308.723 45.5429 309.585 45.9053 310.488 46.6631C311.243 47.296 311.717 48.0358 311.911 48.8826C312.111 49.7289 311.905 50.5433 311.292 51.3257L309.855 50.1197C310.19 49.6675 310.259 49.2041 310.062 48.7295C309.929 48.4141 309.69 48.1112 309.343 47.8205C308.958 47.4973 308.585 47.317 308.225 47.2795C307.865 47.242 307.568 47.3625 307.335 47.6409C307.12 47.8966 307.073 48.1826 307.194 48.499C307.269 48.7054 307.497 49.0648 307.877 49.5774L308.862 50.9084C309.294 51.4915 309.557 52.0069 309.65 52.4546C309.795 53.1498 309.599 53.8162 309.064 54.4539C308.516 55.1077 307.809 55.441 306.943 55.4538C306.083 55.466 305.197 55.0891 304.284 54.3232C303.352 53.541 302.797 52.7138 302.618 51.8416C302.443 50.9662 302.667 50.1562 303.292 49.4117L304.72 50.6095C304.491 50.9745 304.374 51.2935 304.371 51.5667C304.367 52.065 304.659 52.5613 305.248 53.0556Z" fill="white"/>
<path d="M313.913 61.1784C312.969 61.219 312.081 60.8903 311.249 60.1923C310.22 59.3286 309.688 58.3194 309.653 57.1647C309.62 56.0069 310.089 54.8501 311.058 53.6945C312.107 52.4451 313.25 51.7632 314.488 51.6489C315.565 51.5487 316.553 51.8762 317.453 52.6312C318.657 53.6416 319.206 54.7753 319.1 56.0323C319.036 56.7337 318.827 57.3173 318.475 57.783L316.98 56.5282C317.17 56.1036 317.263 55.7401 317.258 55.4376C317.246 54.8988 316.974 54.4052 316.44 53.9571C315.896 53.5008 315.282 53.361 314.599 53.5378C313.918 53.7113 313.241 54.1994 312.568 55.0022C311.894 55.8049 311.554 56.5455 311.547 57.2239C311.547 57.9018 311.802 58.4553 312.313 58.8845C312.838 59.3245 313.381 59.4884 313.944 59.3761C314.251 59.3193 314.61 59.1484 315.02 58.8636L316.501 60.1062C315.717 60.7777 314.854 61.1351 313.913 61.1784Z" fill="white"/>
<path d="M320.996 63.2491L319.452 61.9536L317.097 64.76L315.635 63.5337L321.641 56.3769L325.151 59.3224C325.645 59.7532 325.978 60.1379 326.152 60.4766C326.329 60.818 326.419 61.1776 326.422 61.5552C326.425 61.8669 326.38 62.1708 326.286 62.4669C326.191 62.7631 326.026 63.052 325.79 63.3336C325.505 63.6735 325.138 63.9365 324.689 64.1227C324.243 64.3057 323.766 64.2995 323.257 64.1041C323.476 64.5138 323.55 64.8987 323.479 65.2588C323.415 65.6184 323.172 66.049 322.751 66.5507L322.348 67.0314C322.074 67.3583 321.9 67.5909 321.829 67.7292C321.713 67.9463 321.689 68.1583 321.758 68.3652L321.608 68.5448L319.962 67.1637C320.049 66.9671 320.124 66.812 320.186 66.6986C320.316 66.4654 320.467 66.2422 320.641 66.0291L321.189 65.3557C321.566 64.8939 321.737 64.519 321.702 64.2311C321.672 63.9458 321.436 63.6185 320.996 63.2491ZM322.996 62.7098C323.407 62.8237 323.782 62.68 324.119 62.2786C324.483 61.8449 324.583 61.4327 324.42 61.042C324.329 60.8221 324.121 60.5763 323.797 60.3047L322.059 58.8461L320.446 60.7689L322.14 62.1907C322.477 62.4732 322.762 62.6462 322.996 62.7098Z" fill="white"/>
<path d="M329.335 70.3296L333.026 65.9307L334.546 67.2059L330.855 71.6048C330.217 72.3655 329.602 72.8587 329.009 73.0845C327.917 73.492 326.752 73.1756 325.512 72.1353C324.272 71.095 323.756 70.0004 323.965 68.8515C324.084 68.2292 324.463 67.5377 325.101 66.777L328.793 62.378L330.312 63.6532L326.621 68.0522C326.208 68.5442 325.965 68.9524 325.892 69.2768C325.736 69.8302 325.963 70.3623 326.571 70.8729C327.176 71.3808 327.738 71.5101 328.256 71.2609C328.563 71.1321 328.922 70.8217 329.335 70.3296Z" fill="white"/>
<path d="M331.342 76.7135L329.949 75.5442L335.954 68.3874L338.129 70.2126L334.709 76.9318L340.722 72.3882L342.873 74.193L336.868 81.3498L335.474 80.1805L339.536 75.3398C339.653 75.2006 339.818 75.0077 340.03 74.7612C340.245 74.5114 340.41 74.3186 340.524 74.1826L334.129 79.052L332.678 77.8338L336.372 70.6992C336.258 70.8352 336.097 71.0308 335.888 71.286C335.683 71.5379 335.521 71.7335 335.404 71.8727L331.342 76.7135Z" fill="white"/>
<path d="M342.393 85.9862L341 84.8169L347.005 77.6601L349.18 79.4853L345.76 86.2045L351.773 81.6609L353.924 83.4657L347.919 90.6225L346.525 89.4533L350.587 84.6125C350.704 84.4733 350.868 84.2804 351.081 84.0339C351.296 83.7841 351.461 83.5913 351.575 83.4553L345.18 88.3247L343.729 87.1066L347.423 79.972C347.309 80.1079 347.148 80.3035 346.939 80.5587C346.733 80.8106 346.572 81.0062 346.455 81.1454L342.393 85.9862Z" fill="white"/>
<path d="M356.913 92.8409L353.436 89.9239L351.892 91.7641L355.854 95.0885L354.774 96.3752L349.351 91.8244L355.356 84.6676L360.605 89.0717L359.542 90.339L355.754 87.1612L354.479 88.6809L357.956 91.598L356.913 92.8409Z" fill="white"/>
<path d="M367.145 94.5596L366.082 95.8268L363.941 94.0302L358.999 99.9197L357.493 98.6567L362.435 92.7672L360.284 90.9623L361.348 89.6951L367.145 94.5596Z" fill="white"/>
<path d="M366.287 106.035L368.967 102.84L366.171 100.493L363.49 103.688L362.009 102.446L368.014 95.2889L369.495 96.5315L367.205 99.2602L370.002 101.607L372.292 98.8782L373.778 100.125L367.772 107.282L366.287 106.035Z" fill="white"/>
<path d="M372.203 111.339C371.18 110.481 370.632 109.546 370.559 108.536C370.407 107.245 370.87 105.956 371.948 104.671C373.048 103.36 374.237 102.681 375.513 102.632C376.521 102.529 377.536 102.906 378.559 103.765C379.582 104.623 380.13 105.557 380.203 106.567C380.374 107.83 379.909 109.117 378.809 110.428C377.731 111.713 376.544 112.394 375.249 112.472C374.241 112.575 373.226 112.197 372.203 111.339ZM375.229 110.602C375.943 110.455 376.637 109.979 377.313 109.173C377.987 108.37 378.332 107.604 378.35 106.874C378.373 106.143 378.088 105.529 377.496 105.032C376.903 104.535 376.247 104.357 375.528 104.498C374.808 104.639 374.11 105.112 373.434 105.918C372.758 106.724 372.413 107.494 372.399 108.227C372.385 108.96 372.674 109.575 373.267 110.072C373.859 110.569 374.513 110.745 375.229 110.602Z" fill="white"/>
<path d="M380.027 117.565L376.944 114.978L382.949 107.821L386.032 110.408C386.47 110.787 386.796 111.148 387.009 111.492C387.372 112.078 387.525 112.722 387.466 113.423C387.416 113.988 387.263 114.516 387.006 115.006C386.749 115.497 386.463 115.929 386.148 116.305C385.349 117.257 384.482 117.902 383.546 118.242C382.281 118.698 381.108 118.472 380.027 117.565ZM385.612 113.167C385.709 112.585 385.417 112.009 384.737 111.439L383.358 110.282L379.439 114.953L380.818 116.11C381.523 116.702 382.307 116.767 383.17 116.305C383.642 116.05 384.1 115.659 384.543 115.132C385.154 114.403 385.51 113.748 385.612 113.167Z" fill="white"/>
</g>
<defs>
<filter id="filter0_d_1511_10" x="12.1428" y="16.1472" width="400.454" height="133.401" filterUnits="userSpaceOnUse" color-interpolation-filters="sRGB">
<feFlood flood-opacity="0" result="BackgroundImageFix"/>
<feColorMatrix in="SourceAlpha" type="matrix" values="0 0 0 0 0 0 0 0 0 0 0 0 0 0 0 0 0 0 127 0" result="hardAlpha"/>
<feOffset dy="4"/>
<feGaussianBlur stdDeviation="2"/>
<feComposite in2="hardAlpha" operator="out"/>
<feColorMatrix type="matrix" values="0 0 0 0 0 0 0 0 0 0 0 0 0 0 0 0 0 0 0.25 0"/>
<feBlend mode="normal" in2="BackgroundImageFix" result="effect1_dropShadow_1511_10"/>
<feBlend mode="normal" in="SourceGraphic" in2="effect1_dropShadow_1511_10" result="shape"/>
</filter>
</defs>
</svg>
