<svg width="159" height="146" viewBox="0 0 159 146" fill="none" xmlns="http://www.w3.org/2000/svg">
<path fill-rule="evenodd" clip-rule="evenodd" d="M152.239 109.861C155.434 106.053 154.937 100.377 151.129 97.1817L57.0657 18.2528C55.2119 16.6973 52.8098 15.9538 50.4015 16.1902L24.5176 18.7306C19.6446 19.2089 16.048 23.4952 16.4232 28.3772L18.416 54.309C18.6014 56.7218 19.7507 58.9583 21.6045 60.5138L115.668 139.443C119.476 142.638 125.153 142.141 128.348 138.333L152.239 109.861ZM29.8478 40.6013C32.8185 43.094 37.2503 42.7033 39.7464 39.7286C42.2425 36.7539 41.8577 32.3216 38.8869 29.8288C35.9161 27.3361 31.4844 27.7268 28.9883 30.7015C26.4922 33.6762 26.877 38.1085 29.8478 40.6013Z" fill="#7B31C3"/>
<path d="M65.1884 47.2863C65.189 46.9503 65.0356 46.6533 64.728 46.3953C64.3072 46.0422 63.8891 45.9588 63.4735 46.1451C63.234 46.253 62.9404 46.4977 62.5929 46.879L61.248 45.7505C61.7731 45.1706 62.2876 44.7777 62.7914 44.5717C63.7498 44.1789 64.7 44.3777 65.6419 45.1681C66.3864 45.7928 66.8049 46.497 66.8975 47.2807C66.9928 48.0612 66.7552 48.7913 66.1849 49.471C65.7476 49.9922 65.2038 50.3247 64.5535 50.4686C64.1242 50.5661 63.5379 50.5844 62.7948 50.5235L61.9113 50.4523C61.3585 50.4077 60.9712 50.3861 60.7494 50.3875C60.5308 50.3916 60.3167 50.4298 60.107 50.5022L63.1805 53.0811L62.1579 54.2998L57.3365 50.2542C57.7732 49.7601 58.2686 49.3898 58.8229 49.1434C59.4142 48.8397 60.2973 48.7339 61.472 48.8261C62.4927 48.9048 63.1797 48.9241 63.5331 48.8842C64.0793 48.8185 64.5058 48.6027 64.8127 48.2369C65.0626 47.9391 65.1878 47.6222 65.1884 47.2863Z" fill="white"/>
<path d="M67.4551 58.7447L66.0616 57.5754L72.0669 50.4186L74.2421 52.2438L70.8214 58.963L76.8348 54.4194L78.9857 56.2242L72.9805 63.381L71.587 62.2117L75.6489 57.3709C75.7657 57.2318 75.9303 57.0389 76.1426 56.7924C76.3577 56.5426 76.5223 56.3498 76.6364 56.2138L70.2421 61.0832L68.7903 59.865L72.4851 52.7304C72.371 52.8664 72.2096 53.0619 72.001 53.3171C71.7951 53.5691 71.6338 53.7647 71.517 53.9039L67.4551 58.7447Z" fill="white"/>
<path d="M77.3678 67.4016C76.3449 66.5433 75.7968 65.609 75.7234 64.5987C75.5714 63.3073 76.0346 62.0191 77.1128 60.734C78.2129 59.4231 79.4011 58.7433 80.6775 58.6946C81.6852 58.5914 82.7005 58.969 83.7234 59.8273C84.7463 60.6855 85.2944 61.6198 85.3678 62.6302C85.5383 63.893 85.0735 65.1798 83.9735 66.4908C82.8952 67.7758 81.7086 68.457 80.4137 68.5343C79.4059 68.6375 78.3906 68.2599 77.3678 67.4016ZM80.394 66.6645C81.107 66.5181 81.8017 66.0419 82.478 65.2359C83.1516 64.4332 83.4969 63.6667 83.514 62.9363C83.5371 62.2055 83.2524 61.5915 82.6601 61.0945C82.0677 60.5975 81.4118 60.4194 80.6923 60.5603C79.9728 60.7013 79.2749 61.1747 78.5986 61.9807C77.9223 62.7867 77.5772 63.5562 77.5634 64.2892C77.5495 65.0223 77.8388 65.6373 78.4311 66.1344C79.0235 66.6314 79.6778 66.8081 80.394 66.6645Z" fill="white"/>
<path d="M85.3762 73.7823L82.1328 71.0607L88.1381 63.9039L91.6145 66.821C92.4809 67.57 92.8891 68.3456 92.8393 69.1478C92.8041 69.6367 92.6086 70.0932 92.2528 70.5173C91.8862 70.9543 91.4814 71.2131 91.0386 71.2938C90.7906 71.3395 90.4953 71.3234 90.1526 71.2454C90.407 71.685 90.5056 72.1263 90.4483 72.5692C90.3943 73.0148 90.1949 73.4432 89.8499 73.8543C89.4941 74.2783 89.0682 74.569 88.5721 74.7264C88.2487 74.8356 87.9212 74.8808 87.5896 74.8618C87.2132 74.8438 86.8408 74.7354 86.4725 74.5367C86.1074 74.3406 85.742 74.0892 85.3762 73.7823ZM87.9863 70.6026L86.2044 69.1074L84.6033 71.0156L86.3609 72.4904C86.6749 72.7539 86.9546 72.9168 87.2 72.9794C87.6476 73.0902 88.0561 72.9255 88.4255 72.4852C88.7378 72.113 88.7986 71.7283 88.6079 71.331C88.5016 71.1094 88.2944 70.8666 87.9863 70.6026ZM89.874 69.8616C90.166 69.908 90.4383 69.7807 90.6909 69.4797C90.9707 69.1463 91.0259 68.8176 90.8566 68.4935C90.6957 68.2316 90.4421 67.9554 90.0957 67.6647L88.5226 66.3447L87.1985 67.9227L88.9561 69.3975C89.2701 69.661 89.5761 69.8157 89.874 69.8616Z" fill="white"/>
<path d="M95.1832 69.8155L96.669 71.0622L90.6637 78.219L89.178 76.9723L95.1832 69.8155Z" fill="white"/>
<path d="M98.0673 72.2355L99.5628 73.4904L94.6371 79.3605L98.1815 82.3346L97.1019 83.6213L92.062 79.3923L98.0673 72.2355Z" fill="white"/>
<path d="M105.746 85.5464L102.27 82.6293L100.726 84.4695L104.688 87.7939L103.608 89.0806L98.1846 84.5298L104.19 77.373L109.439 81.7772L108.375 83.0444L104.588 79.8666L103.313 81.3863L106.789 84.3034L105.746 85.5464Z" fill="white"/>
<path d="M112.597 94.1158L109.96 91.9036L108.23 92.9592L106.667 91.6473L115.226 86.6335L116.916 88.0513L113.445 97.3348L111.823 95.974L112.597 94.1158ZM113.214 92.5322L114.683 88.9665L111.398 91.0085L113.214 92.5322Z" fill="white"/>
<path d="M119.557 98.0778L118.037 96.8026L115.878 99.3759L114.392 98.1293L120.397 90.9725L123.514 93.5881C124.233 94.191 124.651 94.8563 124.769 95.5838C124.886 96.3113 124.62 97.0619 123.971 97.8355C123.262 98.6804 122.548 99.0983 121.827 99.0894C121.106 99.0804 120.35 98.7432 119.557 98.0778ZM121.507 97.1739C121.845 97.1653 122.17 96.9749 122.482 96.6026C122.795 96.2304 122.919 95.8821 122.854 95.5578C122.793 95.2363 122.586 94.9275 122.233 94.6314L120.84 93.4621L119.072 95.5693L120.465 96.7386C120.818 97.0347 121.165 97.1798 121.507 97.1739Z" fill="white"/>
<path d="M126.189 103.643L124.669 102.368L122.51 104.941L121.024 103.695L127.03 96.5377L130.147 99.1533C130.865 99.7563 131.283 100.422 131.401 101.149C131.519 101.877 131.253 102.627 130.604 103.401C129.895 104.246 129.18 104.664 128.459 104.655C127.739 104.646 126.982 104.309 126.189 103.643ZM128.139 102.739C128.477 102.731 128.802 102.54 129.115 102.168C129.427 101.796 129.551 101.447 129.487 101.123C129.426 100.802 129.219 100.493 128.866 100.197L127.472 99.0274L125.704 101.135L127.098 102.304C127.45 102.6 127.798 102.745 128.139 102.739Z" fill="white"/>
<path d="M131.088 110.377C131.441 110.673 131.76 110.874 132.045 110.981C132.588 111.183 133.029 111.081 133.368 110.677C133.567 110.44 133.616 110.171 133.518 109.867C133.417 109.567 133.185 109.183 132.823 108.713L132.208 107.908C131.605 107.115 131.244 106.5 131.125 106.064C130.919 105.329 131.111 104.61 131.701 103.908C132.239 103.267 132.918 102.93 133.74 102.897C134.562 102.864 135.425 103.226 136.328 103.984C137.082 104.617 137.556 105.357 137.75 106.204C137.95 107.05 137.744 107.864 137.132 108.647L135.695 107.441C136.03 106.989 136.099 106.525 135.901 106.051C135.769 105.735 135.529 105.432 135.183 105.142C134.798 104.818 134.425 104.638 134.065 104.601C133.705 104.563 133.408 104.684 133.174 104.962C132.96 105.218 132.913 105.504 133.033 105.82C133.108 106.026 133.336 106.386 133.717 106.899L134.702 108.23C135.134 108.813 135.396 109.328 135.489 109.776C135.634 110.471 135.439 111.137 134.904 111.775C134.355 112.429 133.648 112.762 132.783 112.775C131.923 112.787 131.037 112.41 130.124 111.644C129.192 110.862 128.636 110.035 128.458 109.163C128.282 108.287 128.507 107.477 129.132 106.733L130.559 107.931C130.33 108.296 130.214 108.615 130.211 108.888C130.207 109.386 130.499 109.882 131.088 110.377Z" fill="white"/>
<path d="M54.6711 63.3603L53.7625 64.443L52.9663 63.7749L51.6951 65.2897L50.3405 64.153L51.6116 62.6382L48.8246 60.2996L49.8391 59.0906L56.0122 56.9894L57.5659 58.2932L53.8748 62.6921L54.6711 63.3603ZM50.7576 60.0765L52.5201 61.5554L55.0705 58.516L50.7576 60.0765Z" fill="white"/>
<path d="M69.3193 67.8823L70.839 69.1575L62.8188 74.6236L61.3913 73.4258L64.0389 68.5152L64.9476 66.9196L63.534 68.0915L59.1578 71.5517L57.7692 70.3865L61.7449 61.5267L63.3326 62.8589L60.8408 67.7513L60.0873 69.0634L61.2332 68.1219L65.4981 64.676L67.0761 66.0001L64.4872 70.811L63.7483 72.1353L64.8875 71.2213L69.3193 67.8823Z" fill="white"/>
<path d="M73.347 78.1294L69.8706 75.2123L68.3265 77.0525L72.2885 80.377L71.2088 81.6637L65.7854 77.1129L71.7906 69.9561L77.0393 74.3602L75.9759 75.6274L72.1888 72.4496L70.9136 73.9693L74.39 76.8864L73.347 78.1294Z" fill="white"/>
<path d="M75.6418 85.3833L72.3984 82.6618L78.4036 75.505L81.8801 78.4221C82.7464 79.1711 83.1547 79.9467 83.1049 80.7488C83.0697 81.2378 82.8742 81.6943 82.5184 82.1183C82.1517 82.5553 81.747 82.8142 81.3041 82.8949C81.0562 82.9406 80.7608 82.9245 80.4181 82.8465C80.6725 83.2861 80.7711 83.7274 80.7139 84.1703C80.6599 84.6159 80.4604 85.0442 80.1155 85.4553C79.7597 85.8794 79.3337 86.1701 78.8376 86.3274C78.5142 86.4367 78.1868 86.4819 77.8552 86.4629C77.4787 86.4448 77.1063 86.3364 76.738 86.1377C76.3729 85.9417 76.0075 85.6902 75.6418 85.3833ZM78.2519 82.2037L76.47 80.7085L74.8688 82.6166L76.6265 84.0915C76.9404 84.3549 77.2201 84.5179 77.4656 84.5804C77.9131 84.6912 78.3216 84.5265 78.691 84.0863C79.0034 83.7141 79.0642 83.3293 78.8735 82.9321C78.7671 82.7105 78.5599 82.4677 78.2519 82.2037ZM80.1396 81.4627C80.4316 81.5091 80.7039 81.3818 80.9565 81.0808C81.2362 80.7474 81.2914 80.4186 81.1221 80.0945C80.9612 79.8327 80.7076 79.5564 80.3613 79.2658L78.7881 77.9458L77.464 79.5238L79.2217 80.9986C79.5357 81.2621 79.8416 81.4168 80.1396 81.4627Z" fill="white"/>
<path d="M83.0254 89.8166C83.3783 90.1127 83.6973 90.3142 83.9826 90.4212C84.5251 90.6227 84.9661 90.5211 85.3056 90.1165C85.5039 89.8802 85.5538 89.6104 85.4553 89.3071C85.354 89.007 85.1224 88.6224 84.7605 88.1532L84.1456 87.3477C83.5424 86.5547 83.1811 85.9399 83.062 85.5035C82.8567 84.7686 83.0488 84.05 83.6382 83.3476C84.176 82.7067 84.8558 82.3697 85.6777 82.3368C86.4997 82.3039 87.3622 82.6663 88.2653 83.4241C89.0195 84.057 89.4936 84.7968 89.6877 85.6436C89.8877 86.4899 89.6815 87.3043 89.0691 88.0867L87.6319 86.8807C87.9673 86.4285 88.0362 85.9651 87.8387 85.4905C87.7061 85.1751 87.4667 84.8722 87.1203 84.5815C86.7351 84.2583 86.3624 84.078 86.0023 84.0405C85.6421 84.003 85.3452 84.1235 85.1116 84.4019C84.897 84.6576 84.8501 84.9436 84.9707 85.26C85.0458 85.4664 85.2737 85.8258 85.6544 86.3384L86.6392 87.6694C87.0711 88.2525 87.3336 88.7679 87.4268 89.2156C87.5716 89.9108 87.3764 90.5772 86.8414 91.2149C86.2927 91.8687 85.5856 92.202 84.7199 92.2148C83.8602 92.227 82.9739 91.8501 82.0611 91.0842C81.1289 90.302 80.5736 89.4748 80.3953 88.6026C80.2198 87.7271 80.4443 86.9172 81.069 86.1727L82.4965 87.3705C82.2675 87.7355 82.1514 88.0545 82.1484 88.3277C82.144 88.826 82.4363 89.3223 83.0254 89.8166Z" fill="white"/>
<path d="M92.0812 86.9818L93.5669 88.2285L87.5617 95.3853L86.0759 94.1386L92.0812 86.9818Z" fill="white"/>
<path d="M100.165 93.7653L99.102 95.0325L96.9608 93.2358L92.0189 99.1254L90.5137 97.8624L95.4556 91.9728L93.3047 90.168L94.3681 88.9008L100.165 93.7653Z" fill="white"/>
<path d="M102.644 102.713L99.1678 99.7956L97.6237 101.636L101.586 104.96L100.506 106.247L95.0826 101.696L101.088 94.5393L106.337 98.9435L105.273 100.211L101.486 97.0329L100.211 98.5526L103.687 101.47L102.644 102.713Z" fill="white"/>
<path d="M105.137 108.37C105.49 108.666 105.809 108.868 106.094 108.975C106.636 109.176 107.077 109.075 107.417 108.67C107.615 108.434 107.665 108.164 107.567 107.861C107.465 107.561 107.234 107.176 106.872 106.707L106.257 105.901C105.654 105.108 105.292 104.494 105.173 104.057C104.968 103.322 105.16 102.604 105.749 101.901C106.287 101.26 106.967 100.923 107.789 100.89C108.611 100.857 109.473 101.22 110.377 101.978C111.131 102.611 111.605 103.35 111.799 104.197C111.999 105.043 111.793 105.858 111.18 106.64L109.743 105.434C110.079 104.982 110.147 104.519 109.95 104.044C109.817 103.729 109.578 103.426 109.232 103.135C108.846 102.812 108.474 102.632 108.114 102.594C107.753 102.557 107.456 102.677 107.223 102.955C107.008 103.211 106.961 103.497 107.082 103.814C107.157 104.02 107.385 104.379 107.766 104.892L108.75 106.223C109.182 106.806 109.445 107.321 109.538 107.769C109.683 108.464 109.488 109.131 108.953 109.768C108.404 110.422 107.697 110.756 106.831 110.768C105.971 110.781 105.085 110.404 104.172 109.638C103.24 108.856 102.685 108.028 102.507 107.156C102.331 106.281 102.556 105.471 103.18 104.726L104.608 105.924C104.379 106.289 104.263 106.608 104.26 106.881C104.255 107.38 104.548 107.876 105.137 108.37Z" fill="white"/>
</svg>
