<svg width="158" height="146" viewBox="0 0 158 146" fill="none" xmlns="http://www.w3.org/2000/svg">
<path fill-rule="evenodd" clip-rule="evenodd" d="M151.491 109.861C154.686 106.053 154.189 100.377 150.381 97.1817L56.3176 18.2528C54.4639 16.6973 52.0618 15.9538 49.6535 16.1902L23.7696 18.7306C18.8965 19.2089 15.2999 23.4952 15.6751 28.3772L17.668 54.309C17.8534 56.7218 19.0027 58.9583 20.8564 60.5138L114.92 139.443C118.728 142.638 124.405 142.141 127.6 138.333L151.491 109.861ZM29.0997 40.6013C32.0705 43.094 36.5022 42.7033 38.9983 39.7286C41.4944 36.7539 41.1096 32.3216 38.1389 29.8288C35.1681 27.3361 30.7363 27.7268 28.2403 30.7015C25.7442 33.6762 26.129 38.1085 29.0997 40.6013Z" fill="#7B31C3"/>
<path d="M50.2485 53.0556C50.6013 53.3517 50.9204 53.5532 51.2057 53.6602C51.7482 53.8617 52.1892 53.7601 52.5287 53.3555C52.727 53.1192 52.7768 52.8494 52.6783 52.5461C52.5771 52.246 52.3455 51.8614 51.9835 51.3922L51.3687 50.5867C50.7654 49.7937 50.4042 49.1789 50.285 48.7425C50.0798 48.0076 50.2718 47.289 50.8612 46.5866C51.399 45.9457 52.0789 45.6087 52.9008 45.5758C53.7227 45.5429 54.5852 45.9053 55.4883 46.6631C56.2425 47.296 56.7166 48.0358 56.9107 48.8826C57.1107 49.7289 56.9045 50.5433 56.2921 51.3257L54.855 50.1197C55.1903 49.6675 55.2592 49.2041 55.0617 48.7295C54.9292 48.4141 54.6897 48.1112 54.3434 47.8205C53.9582 47.4973 53.5855 47.317 53.2253 47.2795C52.8651 47.242 52.5682 47.3625 52.3346 47.6409C52.1201 47.8966 52.0731 48.1826 52.1938 48.499C52.2688 48.7054 52.4967 49.0648 52.8775 49.5774L53.8622 50.9084C54.2941 51.4915 54.5567 52.0069 54.6498 52.4546C54.7946 53.1498 54.5995 53.8162 54.0644 54.4539C53.5158 55.1077 52.8086 55.441 51.9429 55.4538C51.0832 55.466 50.197 55.0891 49.2841 54.3232C48.3519 53.541 47.7967 52.7138 47.6184 51.8416C47.4428 50.9662 47.6674 50.1562 48.2921 49.4117L49.7196 50.6095C49.4905 50.9745 49.3745 51.2935 49.3714 51.5667C49.367 52.065 49.6594 52.5613 50.2485 53.0556Z" fill="white"/>
<path d="M58.9132 61.1784C57.969 61.219 57.081 60.8903 56.2491 60.1923C55.2197 59.3286 54.6875 58.3194 54.6525 57.1647C54.6202 56.0069 55.0889 54.8501 56.0585 53.6945C57.1069 52.4451 58.25 51.7632 59.4877 51.6489C60.5646 51.5487 61.5531 51.8762 62.4529 52.6312C63.657 53.6416 64.2061 54.7753 64.1001 56.0323C64.0355 56.7337 63.8272 57.3173 63.475 57.783L61.9795 56.5282C62.1703 56.1036 62.263 55.7401 62.2575 55.4376C62.2464 54.8988 61.9738 54.4052 61.4397 53.9571C60.8959 53.5008 60.2823 53.361 59.5989 53.5378C58.9183 53.7113 58.2412 54.1994 57.5676 55.0022C56.894 55.8049 56.5539 56.5455 56.5472 57.2239C56.5466 57.9018 56.8019 58.4553 57.3134 58.8845C57.8377 59.3245 58.3815 59.4884 58.9445 59.3761C59.2514 59.3193 59.6099 59.1484 60.0199 58.8636L61.5008 60.1062C60.7167 60.7777 59.8542 61.1351 58.9132 61.1784Z" fill="white"/>
<path d="M65.9957 63.2491L64.4517 61.9536L62.0969 64.76L60.6354 63.5337L66.6407 56.3769L70.1511 59.3224C70.6447 59.7532 70.9783 60.1379 71.1519 60.4766C71.3287 60.818 71.4186 61.1776 71.4217 61.5552C71.425 61.8669 71.3796 62.1708 71.2855 62.4669C71.1914 62.7631 71.0263 63.052 70.79 63.3336C70.5048 63.6735 70.1379 63.9365 69.6893 64.1227C69.2434 64.3057 68.766 64.2995 68.257 64.1041C68.4758 64.5138 68.55 64.8987 68.4795 65.2588C68.415 65.6184 68.1722 66.049 67.7512 66.5507L67.3479 67.0314C67.0736 67.3583 66.9005 67.5909 66.8286 67.7292C66.7126 67.9463 66.6892 68.1583 66.7582 68.3652L66.6075 68.5448L64.9615 67.1637C65.0493 66.9671 65.1242 66.812 65.1863 66.6986C65.3158 66.4654 65.4673 66.2422 65.6406 66.0291L66.189 65.3557C66.5655 64.8939 66.7367 64.519 66.7025 64.2311C66.6715 63.9458 66.4359 63.6185 65.9957 63.2491ZM67.9955 62.7098C68.4074 62.8237 68.7818 62.68 69.1185 62.2786C69.4825 61.8449 69.5829 61.4327 69.4198 61.042C69.3285 60.8221 69.1211 60.5763 68.7974 60.3047L67.0592 58.8461L65.4458 60.7689L67.1403 62.1907C67.477 62.4732 67.762 62.6462 67.9955 62.7098Z" fill="white"/>
<path d="M74.3353 70.3296L78.0265 65.9307L79.5462 67.2059L75.8551 71.6048C75.2168 72.3655 74.6016 72.8587 74.0095 73.0845C72.9174 73.492 71.7515 73.1756 70.5118 72.1353C69.272 71.095 68.7564 70.0004 68.9648 68.8515C69.0843 68.2292 69.4632 67.5377 70.1015 66.777L73.7926 62.378L75.3124 63.6532L71.6212 68.0522C71.2083 68.5442 70.9651 68.9524 70.8915 69.2768C70.736 69.8302 70.9625 70.3623 71.571 70.8729C72.1763 71.3808 72.738 71.5101 73.2561 71.2609C73.5627 71.1321 73.9225 70.8217 74.3353 70.3296Z" fill="white"/>
<path d="M76.3425 76.7135L74.949 75.5442L80.9543 68.3874L83.1295 70.2126L79.7088 76.9318L85.7222 72.3882L87.8732 74.193L81.8679 81.3498L80.4744 80.1805L84.5363 75.3398C84.6531 75.2006 84.8177 75.0077 85.0301 74.7612C85.2452 74.5114 85.4097 74.3186 85.5238 74.1826L79.1295 79.052L77.6777 77.8338L81.3725 70.6992C81.2584 70.8352 81.0971 71.0308 80.8884 71.286C80.6825 71.5379 80.5212 71.7335 80.4044 71.8727L76.3425 76.7135Z" fill="white"/>
<path d="M87.3933 85.9862L85.9998 84.8169L92.0051 77.6601L94.1803 79.4853L90.7596 86.2045L96.773 81.6609L98.924 83.4657L92.9187 90.6225L91.5252 89.4533L95.5871 84.6125C95.7039 84.4733 95.8685 84.2804 96.0809 84.0339C96.296 83.7841 96.4605 83.5913 96.5746 83.4553L90.1803 88.3247L88.7285 87.1066L92.4233 79.972C92.3092 80.1079 92.1479 80.3035 91.9392 80.5587C91.7333 80.8106 91.572 81.0062 91.4552 81.1454L87.3933 85.9862Z" fill="white"/>
<path d="M101.913 92.8409L98.4362 89.9239L96.8921 91.764L100.854 95.0885L99.7745 96.3752L94.351 91.8244L100.356 84.6676L105.605 89.0717L104.542 90.339L100.754 87.1612L99.4792 88.6809L102.956 91.598L101.913 92.8409Z" fill="white"/>
<path d="M112.145 94.5596L111.082 95.8268L108.941 94.0302L103.999 99.9197L102.493 98.6567L107.435 92.7672L105.284 90.9623L106.348 89.6951L112.145 94.5596Z" fill="white"/>
<path d="M111.287 106.035L113.967 102.84L111.171 100.493L108.49 103.688L107.009 102.446L113.014 95.2889L114.495 96.5315L112.205 99.2602L115.002 101.607L117.292 98.8782L118.778 100.125L112.772 107.282L111.287 106.035Z" fill="white"/>
<path d="M117.203 111.339C116.18 110.481 115.632 109.546 115.559 108.536C115.407 107.245 115.87 105.956 116.948 104.671C118.048 103.36 119.237 102.681 120.513 102.632C121.521 102.529 122.536 102.906 123.559 103.765C124.582 104.623 125.13 105.557 125.203 106.567C125.374 107.83 124.909 109.117 123.809 110.428C122.731 111.713 121.544 112.394 120.249 112.472C119.241 112.575 118.226 112.197 117.203 111.339ZM120.229 110.602C120.943 110.455 121.637 109.979 122.313 109.173C122.987 108.37 123.332 107.604 123.35 106.874C123.373 106.143 123.088 105.529 122.496 105.032C121.903 104.535 121.247 104.357 120.528 104.498C119.808 104.639 119.11 105.112 118.434 105.918C117.758 106.724 117.413 107.494 117.399 108.227C117.385 108.96 117.674 109.575 118.267 110.072C118.859 110.569 119.513 110.745 120.229 110.602Z" fill="white"/>
<path d="M125.027 117.565L121.944 114.978L127.949 107.821L131.032 110.408C131.47 110.787 131.796 111.148 132.009 111.492C132.372 112.078 132.525 112.722 132.466 113.423C132.416 113.988 132.263 114.516 132.006 115.006C131.749 115.497 131.463 115.929 131.148 116.305C130.349 117.257 129.482 117.902 128.546 118.242C127.281 118.698 126.108 118.472 125.027 117.565ZM130.612 113.167C130.709 112.585 130.417 112.009 129.737 111.439L128.358 110.282L124.439 114.953L125.818 116.11C126.523 116.702 127.307 116.767 128.17 116.305C128.642 116.05 129.1 115.659 129.543 115.132C130.154 114.403 130.51 113.748 130.612 113.167Z" fill="white"/>
</svg>
