<svg width="237" height="173" viewBox="0 0 237 173" fill="none" xmlns="http://www.w3.org/2000/svg">
<path d="M0 7L13.848 17.4034L15.9337 0.208963L0 7ZM178.5 150L179.613 151.005L178.5 150ZM68 96.5L66.5087 96.339L68 96.5ZM13.2022 10.1123C76.0992 18.4688 132.775 36.3797 165.851 60.7166C182.383 72.8813 192.834 86.512 195.431 101.184C198.018 115.795 192.883 131.829 177.387 148.995L179.613 151.005C195.511 133.396 201.183 116.463 198.385 100.661C195.598 84.9209 184.472 70.6933 167.629 58.3003C133.953 33.5219 76.6855 15.5203 13.5973 7.13841L13.2022 10.1123ZM177.387 148.995C161.756 166.308 132.526 173.489 108.292 166.141C96.2233 162.482 85.4619 155.237 78.2493 143.912C71.037 132.587 67.2897 117.05 69.4913 96.661L66.5087 96.339C64.2498 117.258 68.0687 133.511 75.7189 145.523C83.3687 157.535 94.7659 165.175 107.421 169.012C132.635 176.657 163.116 169.279 179.613 151.005L177.387 148.995ZM69.4913 96.661C72.3158 70.5042 85.29 53.2697 102.706 44.1169C120.177 34.9346 142.274 33.8092 163.375 40.2472C205.501 53.1004 243.386 96.0269 231.522 164.243L234.478 164.757C246.614 94.9731 207.749 50.6496 164.25 37.3778C142.539 30.7533 119.604 31.8466 101.31 41.4613C82.96 51.1053 69.4342 69.2458 66.5087 96.339L69.4913 96.661Z" fill="#9E3CFF"/>
</svg>
