<svg width="36" height="36" viewBox="0 0 36 36" fill="none" xmlns="http://www.w3.org/2000/svg">
<path d="M22.1399 16.7851C21.931 16.7842 21.7243 16.827 21.5329 16.9107C21.3415 16.9944 21.1697 17.1171 21.0285 17.271C20.8873 17.4249 20.7798 17.6067 20.7128 17.8045C20.6459 18.0024 20.6211 18.2121 20.6399 18.4201H23.7299C23.7498 18.2042 23.7228 17.9867 23.6506 17.7823C23.5784 17.5779 23.4627 17.3916 23.3116 17.2362C23.1605 17.0808 22.9775 16.96 22.7752 16.8822C22.5729 16.8043 22.3562 16.7712 22.1399 16.7851Z" fill="#9E3CFF"/>
<path d="M14.2346 18.45H12.3896V21.36H13.8896C15.3896 21.36 16.0496 20.865 16.0496 19.86C16.0496 18.855 15.3596 18.45 14.2346 18.45Z" fill="#9E3CFF"/>
<path d="M15.5396 15.7799C15.5396 14.9849 15.0146 14.5049 14.1146 14.5049H12.3896V17.1149H13.6646C14.9996 17.1149 15.5396 16.6349 15.5396 15.7799Z" fill="#9E3CFF"/>
<path d="M18 3C15.0333 3 12.1332 3.87973 9.66645 5.52796C7.19972 7.17618 5.27713 9.51886 4.14181 12.2597C3.0065 15.0006 2.70945 18.0166 3.28823 20.9264C3.86701 23.8361 5.29562 26.5088 7.39341 28.6066C9.49119 30.7044 12.1639 32.133 15.0737 32.7118C17.9834 33.2906 20.9994 32.9935 23.7403 31.8582C26.4812 30.7229 28.8238 28.8003 30.4721 26.3336C32.1203 23.8668 33 20.9667 33 18C33 16.0302 32.612 14.0796 31.8582 12.2597C31.1044 10.4399 29.9995 8.78628 28.6066 7.3934C27.2137 6.00052 25.5601 4.89563 23.7403 4.14181C21.9204 3.38799 19.9698 3 18 3ZM14.55 22.8H10.5V13.05H14.55C16.305 13.05 17.46 13.965 17.46 15.45C17.4807 15.9489 17.323 16.4388 17.0151 16.8319C16.7072 17.225 16.2693 17.4956 15.78 17.595C16.0901 17.6022 16.3955 17.6726 16.6774 17.8019C16.9594 17.9311 17.212 18.1166 17.4198 18.3469C17.6276 18.5771 17.7863 18.8474 17.886 19.1411C17.9858 19.4348 18.0246 19.7458 18 20.055C18 21.795 16.5 22.8 14.55 22.8ZM19.875 13.8H24.375V14.55H19.875V13.8ZM25.5 19.575H20.55V19.785C20.5242 20.0129 20.5476 20.2438 20.6185 20.4619C20.6895 20.68 20.8063 20.8804 20.9613 21.0496C21.1162 21.2187 21.3056 21.3527 21.5167 21.4425C21.7278 21.5323 21.9557 21.5757 22.185 21.57C22.507 21.62 22.8362 21.5519 23.1119 21.3782C23.3876 21.2045 23.5911 20.937 23.685 20.625H25.5C25.3384 21.345 24.9171 21.9802 24.3166 22.4092C23.7161 22.8381 22.9785 23.0306 22.245 22.95C21.7762 22.9973 21.3027 22.9414 20.8578 22.786C20.413 22.6307 20.0075 22.3798 19.6701 22.0509C19.3326 21.722 19.0714 21.3232 18.9046 20.8825C18.7379 20.4418 18.6697 19.9699 18.705 19.5V18.84C18.6732 18.3847 18.7401 17.9279 18.9014 17.5009C19.0626 17.074 19.3143 16.6869 19.6392 16.3663C19.964 16.0457 20.3544 15.7992 20.7835 15.6436C21.2125 15.488 21.6702 15.4271 22.125 15.465C22.5783 15.4359 23.0326 15.5043 23.4573 15.6656C23.882 15.8269 24.2672 16.0772 24.587 16.3999C24.9068 16.7225 25.1537 17.1099 25.3112 17.536C25.4687 17.9621 25.5331 18.4169 25.5 18.87V19.575Z" fill="#9E3CFF"/>
</svg>
