<svg width="36" height="36" viewBox="0 0 36 36" fill="none" xmlns="http://www.w3.org/2000/svg">
<g clip-path="url(#clip0_1418_45522)">
<path d="M35.6145 27.3013C34.2744 24.7679 29.6207 22.0209 29.4159 21.9008C28.8179 21.5604 28.1939 21.3803 27.6099 21.3803C26.7417 21.3803 26.0309 21.778 25.6004 22.5015C24.9197 23.3157 24.0755 24.2674 23.8706 24.4148C22.2849 25.4907 21.0435 25.3685 19.6701 23.9951L12.0045 16.3288C10.6397 14.964 10.5142 13.7073 11.5827 12.1303C11.7322 11.9241 12.6839 11.0792 13.4981 10.3978C14.0173 10.0888 14.3737 9.62963 14.5299 9.06636C14.7374 8.31689 14.5846 7.43527 14.0947 6.57635C13.9793 6.37881 11.231 1.72447 8.69894 0.385035C8.22643 0.134766 7.69386 0.00262451 7.15995 0.00262451C6.28034 0.00262451 5.45279 0.34566 4.83079 0.966994L3.13697 2.66015C0.458089 5.33836 -0.511619 8.37428 0.253202 11.6832C0.891221 14.4408 2.75055 17.3753 5.78047 20.4045L15.5943 30.2184C19.4291 34.0532 23.0851 35.998 26.4607 35.998C26.4607 35.998 26.4607 35.998 26.4613 35.998C28.944 35.998 31.2585 34.9428 33.3387 32.8626L35.0319 31.1694C36.061 30.141 36.2946 28.586 35.6145 27.3013Z" fill="#9E3CFF"/>
</g>
<defs>
<clipPath id="clip0_1418_45522">
<rect width="36" height="36" fill="white"/>
</clipPath>
</defs>
</svg>
